<svg xmlns="http://www.w3.org/2000/svg" width="475.543" height="485.278" viewBox="0 0 475.543 485.278">
  <g id="Group_997" data-name="Group 997" transform="translate(-638 -2425)">
    <g id="Group_991" data-name="Group 991" transform="translate(662.219 2425)">
      <path id="Path_220" data-name="Path 220" d="M830.2,319.889C830.2,412.545,770.686,491.3,687.8,520a213.091,213.091,0,0,1-103.882,8.8q-4.957-.809-9.844-1.859-6.621-1.406-13.086-3.234c-88.992-25.047-154.218-106.812-154.218-203.812,0-116.929,94.789-211.718,211.718-211.718S830.2,202.96,830.2,319.889Z" transform="translate(-406.765 -108.171)" fill="#f4a421"/>
      <path id="Path_221" data-name="Path 221" d="M508.024,462.532a2.035,2.035,0,0,0-.836,2.751L608.7,655.426a2.035,2.035,0,0,0,2.751.836l143.5-76.616a2.035,2.035,0,0,0,.836-2.751L654.279,386.752a2.035,2.035,0,0,0-2.752-.836Z" transform="translate(-448.212 -229.245)" fill="#3f3d56"/>
      <path id="Path_222" data-name="Path 222" d="M521.386,468.142l92.9,174,127.359-68-92.9-174Zm-8.07,4.308.018-.009-.02.01Z" transform="translate(-448.235 -229.298)" fill="#fff"/>
      <path id="Path_223" data-name="Path 223" d="M553.639,487.406c-1.979,1.056-2.4,4.14-.94,6.873s4.256,4.1,6.234,3.042l93.277-49.8c1.979-1.056,2.4-4.14.94-6.873s-4.256-4.1-6.235-3.042Z" transform="translate(-448.376 -229.433)" fill="#e8505b"/>
      <path id="Path_224" data-name="Path 224" d="M565.173,509.01c-1.979,1.056-2.4,4.14-.94,6.873s4.256,4.1,6.235,3.042l93.277-49.8c1.979-1.056,2.4-4.14.94-6.873s-4.256-4.1-6.235-3.042Z" transform="translate(-448.418 -229.512)" fill="#e8505b"/>
      <path id="Path_225" data-name="Path 225" d="M576.708,530.615c-1.979,1.056-2.4,4.14-.94,6.873s4.256,4.1,6.235,3.042l93.277-49.8c1.979-1.056,2.4-4.14.941-6.873s-4.256-4.1-6.235-3.042Z" transform="translate(-448.46 -229.591)" fill="#e8505b"/>
      <path id="Path_226" data-name="Path 226" d="M588.242,552.219c-1.979,1.056-2.4,4.14-.941,6.873s4.256,4.1,6.235,3.042l93.277-49.8c1.979-1.056,2.4-4.14.941-6.873s-4.256-4.1-6.235-3.042Z" transform="translate(-448.502 -229.67)" fill="#e8505b"/>
      <path id="Path_227" data-name="Path 227" d="M599.777,573.824c-1.979,1.056-2.4,4.14-.941,6.873s4.256,4.1,6.235,3.042l93.277-49.8c1.979-1.056,2.4-4.14.941-6.873s-4.256-4.1-6.235-3.042Z" transform="translate(-448.544 -229.749)" fill="#e8505b"/>
      <path id="Path_228" data-name="Path 228" d="M397.312,271.9l84.52,5.161,23.67-70.589L431.369,190.8Z" transform="translate(-227.966 -120.757)" fill="#2f2e41"/>
      <circle id="Ellipse_23" data-name="Ellipse 23" cx="33.803" cy="33.803" r="33.803" transform="translate(196.498 65.683)" fill="#ffb8b8"/>
      <path id="Path_229" data-name="Path 229" d="M513.359,288.31l-54.8,8.967-14.447-57.29,38.359-3.487Z" transform="translate(-228.137 -120.924)" fill="#ffb8b8"/>
      <path id="Path_230" data-name="Path 230" d="M765.7,632.278l.219,2.63a271.76,271.76,0,0,1-132.484,11.219l-.289,4.673a15.991,15.991,0,0,1-21.71,13.889l9.445-20.933,11.946-26.493,7.831-17.366-2.82-60.08-.3-6.217-.369-7.931,5.1-.03,36.267-.219L713.1,525.2l5.271-.03C751.422,565.822,778.692,598.861,765.7,632.278Z" transform="translate(-448.593 -229.755)" fill="#2f2e41"/>
      <path id="Path_231" data-name="Path 231" d="M717.942,524.1l-80.7,8.967-2.989-55.8c-9.471-24.156-3.219-45.716,16.437-65.065l4-15.818a23.418,23.418,0,0,1,17.3-17.049h0c13.211-7.577,28.175-11.188,44.965-10.67h0a33.553,33.553,0,0,1,21.247,33.862C734.72,446.383,728.485,487.428,717.942,524.1Z" transform="translate(-448.661 -229.183)" fill="#e8505b"/>
      <path id="Path_232" data-name="Path 232" d="M694.921,430.667l-.648,4.892-10.312,77.8-5.46,11.707-1.784,3.826L635.141,617.98l-1.744,27.8-.289,4.673A15.971,15.971,0,1,1,602.49,643.2l1.664-3.916,9.067-21.3,24.58-78.512,2.023-6.476,2.411-7.7,6.855-21.89,10.92-67.313,1.036-6.416Z" transform="translate(-448.556 -229.406)" fill="#ffb8b8"/>
      <path id="Path_233" data-name="Path 233" d="M701.1,437.452c-15.658-5.627-30.679-6.225-44.836,0l4.621-40.048a19.1,19.1,0,0,1,18.086-19.722h0a19.1,19.1,0,0,1,20.082,18.136Z" transform="translate(-448.757 -229.216)" fill="#e8505b"/>
      <path id="Path_234" data-name="Path 234" d="M653.347,288.4s-17.479,6.379-17.927,29.568a41.866,41.866,0,0,0,1.548,11.547c1.133,4.262,2.043,13.509-5.579,25.836A238.986,238.986,0,0,0,617.9,380.173h0l19.681,1.9,3.254-32.625a161.946,161.946,0,0,1,11.569-46l.127-.306s9.029,15.693,26.189,15.209l-6.3-5.956s21.493,8.094,33.181,9.719a7.4,7.4,0,0,1,4.458,12.308q-.1.113-.21.226c-7.147,7.562-21.373,25.136-12.413,38.378s1.709,17.126,1.709,17.126l13.276-7.734,6.025-3.85.138,4.9,31.765-4.575s8.546-1.467-10.427-21.787c0,0-5.083-7.955-3.155-14.994a35.216,35.216,0,0,0,.874-16.5C732.878,302.751,715.43,257.522,653.347,288.4Z" transform="translate(-448.617 -228.851)" fill="#2f2e41"/>
      <ellipse id="Ellipse_24" data-name="Ellipse 24" cx="95.312" cy="5.469" rx="95.312" ry="5.469" transform="translate(116.406 474.34)" fill="#eceff4"/>
    </g>
    <path id="Path_235" data-name="Path 235" d="M221.232,426.191a.782.782,0,0,0-.554.956L242,507.168a.782.782,0,0,0,.956.554l60.393-16.091a.782.782,0,0,0,.554-.956l-21.32-80.021a.782.782,0,0,0-.956-.554Z" transform="translate(417.349 2096.881)" fill="#eceff4"/>
    <path id="Path_236" data-name="Path 236" d="M240.1,444.681a1.937,1.937,0,0,0-.954,2.489c.306,1.15,1.233,1.906,2.066,1.684l39.255-10.459a1.937,1.937,0,0,0,.954-2.489c-.306-1.15-1.233-1.906-2.066-1.684Z" transform="translate(413.326 2091.607)" fill="#fff"/>
    <path id="Path_237" data-name="Path 237" d="M243.184,456.276a1.937,1.937,0,0,0-.954,2.489c.306,1.15,1.233,1.906,2.066,1.684l39.255-10.459a1.937,1.937,0,0,0,.954-2.489c-.306-1.15-1.233-1.906-2.066-1.684Z" transform="translate(412.65 2089.071)" fill="#fff"/>
    <path id="Path_238" data-name="Path 238" d="M246.273,467.872a1.937,1.937,0,0,0-.954,2.489c.306,1.15,1.233,1.906,2.066,1.684l39.255-10.459a1.937,1.937,0,0,0,.954-2.489c-.306-1.15-1.233-1.906-2.066-1.684Z" transform="translate(411.974 2086.534)" fill="#fff"/>
    <path id="Path_239" data-name="Path 239" d="M249.363,479.467a1.937,1.937,0,0,0-.954,2.489c.306,1.15,1.233,1.906,2.066,1.684l39.255-10.459a1.937,1.937,0,0,0,.954-2.489c-.306-1.15-1.233-1.906-2.066-1.684Z" transform="translate(411.298 2083.998)" fill="#fff"/>
    <path id="Path_240" data-name="Path 240" d="M252.452,491.063a1.937,1.937,0,0,0-.954,2.489c.306,1.15,1.233,1.906,2.066,1.684l39.255-10.459a1.937,1.937,0,0,0,.954-2.489c-.306-1.15-1.233-1.906-2.066-1.684Z" transform="translate(410.622 2081.461)" fill="#fff"/>
    <path id="Path_241" data-name="Path 241" d="M255.542,502.658a1.937,1.937,0,0,0-.954,2.489c.306,1.15,1.233,1.906,2.066,1.684l39.255-10.459a1.937,1.937,0,0,0,.954-2.489c-.306-1.15-1.233-1.906-2.066-1.684Z" transform="translate(409.947 2078.925)" fill="#fff"/>
    <path id="Path_249" data-name="Path 249" d="M224.114,348.521a.782.782,0,0,0-.321,1.057l39,73.053a.782.782,0,0,0,1.057.321l55.134-29.436a.782.782,0,0,0,.321-1.057l-39-73.053a.782.782,0,0,0-1.057-.321Z" transform="translate(416.681 2116.805)" fill="#eceff4"/>
    <path id="Path_250" data-name="Path 250" d="M229.922,352.206l35.691,66.849,48.931-26.124-35.691-66.85Zm-3.1,1.655.007,0-.008,0Z" transform="translate(415.999 2115.255)" fill="#fff"/>
    <path id="Path_251" data-name="Path 251" d="M246.387,363.532a1.937,1.937,0,0,0-.361,2.641c.561,1.05,1.635,1.575,2.4,1.169l35.837-19.133a1.937,1.937,0,0,0,.361-2.641c-.561-1.05-1.635-1.575-2.4-1.169Z" transform="translate(411.871 2111.278)" fill="#e8505b"/>
    <path id="Path_252" data-name="Path 252" d="M252.038,374.118a1.937,1.937,0,0,0-.361,2.641c.561,1.05,1.635,1.575,2.4,1.169l35.837-19.133a1.937,1.937,0,0,0,.361-2.641c-.561-1.05-1.635-1.575-2.4-1.169Z" transform="translate(410.635 2108.962)" fill="#e8505b"/>
    <path id="Path_253" data-name="Path 253" d="M257.69,384.7a1.937,1.937,0,0,0-.361,2.641c.561,1.05,1.635,1.575,2.4,1.169l35.837-19.134a1.937,1.937,0,0,0,.361-2.641c-.561-1.05-1.635-1.575-2.4-1.169Z" transform="translate(409.398 2106.647)" fill="#e8505b"/>
    <path id="Path_254" data-name="Path 254" d="M263.342,395.29a1.937,1.937,0,0,0-.361,2.641c.561,1.05,1.635,1.575,2.4,1.169l35.837-19.133a1.937,1.937,0,0,0,.361-2.641c-.561-1.05-1.635-1.575-2.4-1.169Z" transform="translate(408.162 2104.331)" fill="#e8505b"/>
    <path id="Path_255" data-name="Path 255" d="M268.993,405.875a1.937,1.937,0,0,0-.361,2.641c.561,1.05,1.635,1.575,2.4,1.169l35.837-19.133a1.937,1.937,0,0,0,.361-2.641c-.561-1.05-1.635-1.575-2.4-1.169Z" transform="translate(406.926 2102.015)" fill="#e8505b"/>
    <path id="Path_256" data-name="Path 256" d="M274.645,416.461a1.937,1.937,0,0,0-.361,2.641c.561,1.05,1.635,1.575,2.4,1.169l35.837-19.133a1.937,1.937,0,0,0,.361-2.641c-.561-1.05-1.635-1.575-2.4-1.169Z" transform="translate(405.689 2099.699)" fill="#e8505b"/>
    <path id="Path_257" data-name="Path 257" d="M897.857,595.716a.782.782,0,0,0-1.07.275l-42.131,71.294a.782.782,0,0,0,.275,1.07l53.807,31.8a.782.782,0,0,0,1.07-.275l42.131-71.294a.782.782,0,0,0-.275-1.07Z" transform="translate(161.495 2071.921)" fill="#e6e6e6"/>
    <path id="Path_258" data-name="Path 258" d="M900.265,602.269,861.712,667.51l47.753,28.22,38.554-65.241Zm-3.026-1.788.006,0-.007,0Z" transform="translate(159.928 2070.855)" fill="#fff"/>
    <path id="Path_259" data-name="Path 259" d="M910.439,621.105a2.273,2.273,0,0,0-2.2,3.718l34.975,20.668a2.273,2.273,0,0,0,2.2-3.718Z" transform="translate(149.889 2066.378)" fill="#e8505b"/>
    <path id="Path_260" data-name="Path 260" d="M904.334,631.436a2.273,2.273,0,0,0-2.2,3.718l34.975,20.668a2.273,2.273,0,0,0,2.2-3.718Z" transform="translate(151.224 2064.118)" fill="#e8505b"/>
    <path id="Path_261" data-name="Path 261" d="M898.229,641.767a2.273,2.273,0,0,0-2.2,3.718l34.974,20.668a2.273,2.273,0,0,0,2.2-3.718Z" transform="translate(152.56 2061.859)" fill="#e8505b"/>
    <path id="Path_262" data-name="Path 262" d="M892.124,652.1a2.273,2.273,0,0,0-2.2,3.718L924.9,676.484a2.273,2.273,0,0,0,2.2-3.718Z" transform="translate(153.895 2059.599)" fill="#e8505b"/>
    <path id="Path_263" data-name="Path 263" d="M886.019,662.429a2.273,2.273,0,0,0-2.2,3.718L918.8,686.815a2.273,2.273,0,0,0,2.2-3.718Z" transform="translate(155.231 2057.339)" fill="#e8505b"/>
    <path id="Path_264" data-name="Path 264" d="M879.914,672.76a2.273,2.273,0,0,0-2.2,3.718l34.974,20.668a2.273,2.273,0,0,0,2.2-3.718Z" transform="translate(156.566 2055.079)" fill="#e8505b"/>
  </g>
</svg>
