<svg id="Component_14_1" data-name="Component 14 – 1" xmlns="http://www.w3.org/2000/svg" xmlns:xlink="http://www.w3.org/1999/xlink" width="1168" height="479" viewBox="0 0 1168 479">
  <defs>
    <linearGradient id="linear-gradient" x1="0.128" y1="0.25" x2="0.865" y2="0.742" gradientUnits="objectBoundingBox">
      <stop offset="0" stop-color="#fcb846"/>
      <stop offset="1" stop-color="#f29f16"/>
    </linearGradient>
  </defs>
  <rect id="Rectangle_80" data-name="Rectangle 80" width="1168" height="479" fill="url(#linear-gradient)"/>
  <ellipse id="Ellipse_26" data-name="Ellipse 26" cx="38" cy="43.5" rx="38" ry="43.5" transform="translate(172 89)" fill="#fff" opacity="0.69"/>
  <circle id="Ellipse_27" data-name="Ellipse 27" cx="30" cy="30" r="30" transform="translate(238 76)" fill="#fff" opacity="0.23"/>
  <g id="Icon_ionic-ios-notifications-outline" data-name="Icon ionic-ios-notifications-outline" transform="translate(979.548 175.622)">
    <path id="Path_266" data-name="Path 266" d="M31.579,28.336a2.711,2.711,0,0,0-2.659,2.135,5.246,5.246,0,0,1-1.047,2.282c-.272.314-1.068,1.235-3.371,1.235s-3.1-.942-3.371-1.235a5.247,5.247,0,0,1-1.047-2.282,2.711,2.711,0,0,0-2.659-2.135h0a2.73,2.73,0,0,0-2.659,3.329A9.354,9.354,0,0,0,24.5,39.432c5.339,0,8.688-3.078,9.735-7.767a2.74,2.74,0,0,0-2.659-3.329Z" transform="translate(8.899 44.331)" fill="#fff"/>
    <path id="Path_267" data-name="Path 267" d="M72.857,65.962c-3.224-4.25-9.568-6.741-9.568-25.772,0-19.533-8.625-27.384-16.665-29.268-.754-.188-1.3-.44-1.3-1.235V9.081A5.135,5.135,0,0,0,40.3,3.93h-.126a5.135,5.135,0,0,0-5.025,5.15v.607c0,.775-.544,1.047-1.3,1.235-8.06,1.905-16.665,9.735-16.665,29.268,0,19.03-6.343,21.5-9.568,25.772a4.156,4.156,0,0,0,3.329,6.657h58.64A4.159,4.159,0,0,0,72.857,65.962Zm-8.165,1.214H15.871a.918.918,0,0,1-.691-1.528,25.363,25.363,0,0,0,4.4-6.992c2.01-4.731,2.994-10.782,2.994-18.465,0-7.809,1.465-13.922,4.376-18.172a13.433,13.433,0,0,1,8.1-5.778,7.337,7.337,0,0,0,3.894-2.2A1.656,1.656,0,0,1,41.433,14a7.585,7.585,0,0,0,3.936,2.24,13.433,13.433,0,0,1,8.1,5.778c2.91,4.25,4.376,10.363,4.376,18.172,0,7.683.984,13.734,2.994,18.465a25.652,25.652,0,0,0,4.5,7.1A.866.866,0,0,1,64.692,67.177Z" transform="translate(-6.775 -3.93)" fill="#fff"/>
  </g>
</svg>
