<svg xmlns="http://www.w3.org/2000/svg" width="371.541" height="371.616" viewBox="0 0 371.541 371.616">
  <path id="Icon_awesome-globe" data-name="Icon awesome-globe" d="M252.114,114.445C241.251,47.539,215.627.562,185.808.562S130.365,47.539,119.5,114.445ZM113.882,186.37a469.612,469.612,0,0,0,2.472,47.95H255.186a469.612,469.612,0,0,0,2.472-47.95,469.611,469.611,0,0,0-2.472-47.95H116.355A469.609,469.609,0,0,0,113.882,186.37Zm243.274-71.926A186.2,186.2,0,0,0,238.778,8.354c18.281,25.324,30.868,63.459,37.461,106.09ZM132.763,8.354a186.076,186.076,0,0,0-118.3,106.09H95.376c6.518-42.631,19.105-80.767,37.386-106.09ZM365.173,138.42H279.236c1.573,15.734,2.472,31.842,2.472,47.95s-.9,32.217-2.472,47.95H365.1a184.207,184.207,0,0,0,6.443-47.95A187.422,187.422,0,0,0,365.173,138.42ZM89.907,186.37c0-16.108.9-32.217,2.472-47.95H6.443a181.642,181.642,0,0,0,0,95.9H92.3C90.806,218.587,89.907,202.479,89.907,186.37ZM119.5,258.3c10.864,66.906,36.487,113.882,66.306,113.882S241.251,325.2,252.114,258.3Zm119.352,106.09A186.378,186.378,0,0,0,357.231,258.3H276.314c-6.593,42.631-19.18,80.767-37.461,106.09ZM14.46,258.3a186.2,186.2,0,0,0,118.378,106.09c-18.281-25.324-30.868-63.459-37.461-106.09H14.46Z" transform="translate(0 -0.563)" fill="#faa10f"/>
</svg>
