<svg xmlns="http://www.w3.org/2000/svg" width="64.834" height="57.631" viewBox="0 0 64.834 57.631"><path d="M62.133,7.2H50.427V2.7a2.7,2.7,0,0,0-2.7-2.7H17.109a2.7,2.7,0,0,0-2.7,2.7V7.2H2.7A2.7,2.7,0,0,0,0,9.905v6.3c0,4.018,2.533,8.149,6.967,11.335a26.37,26.37,0,0,0,12.382,4.694,24.9,24.9,0,0,0,7.665,8.284v8.1h-5.4c-3.973,0-7.2,2.33-7.2,6.3V56.28a1.355,1.355,0,0,0,1.351,1.351H49.076a1.355,1.355,0,0,0,1.351-1.351V54.929c0-3.973-3.23-6.3-7.2-6.3h-5.4v-8.1a24.9,24.9,0,0,0,7.665-8.284,26.279,26.279,0,0,0,12.382-4.694c4.424-3.185,6.967-7.316,6.967-11.335v-6.3A2.7,2.7,0,0,0,62.133,7.2ZM11.177,21.7C8.431,19.72,7.2,17.514,7.2,16.209v-1.8H14.43a40.427,40.427,0,0,0,1.441,9.7A18.139,18.139,0,0,1,11.177,21.7Zm46.453-5.493c0,1.812-1.992,4.063-3.973,5.493a18.21,18.21,0,0,1-4.7,2.409,40.428,40.428,0,0,0,1.441-9.7h7.238Z" fill="#faa10f"/><path d="M229.05,86.548s2.407,14.845-5.51,15.241C228.46,77.642,229.05,86.548,229.05,86.548Z" transform="translate(-166.781 -113.582) rotate(8)" fill="#fff"/><path d="M223.241,88.786s-1.846,8.047,5.113,8.331" transform="translate(-216.351 5.481) rotate(-16)" fill="#fff"/></svg>