<svg xmlns="http://www.w3.org/2000/svg" width="419.97" height="537.212" viewBox="0 0 419.97 537.212">
  <g id="Group_994" data-name="Group 994" transform="translate(-1084.03 -193.788)">
    <g id="Group_8" data-name="Group 8" transform="translate(1084.03 193.788)">
      <ellipse id="Ellipse_6" data-name="Ellipse 6" cx="138.832" cy="20.773" rx="138.832" ry="20.773" transform="translate(0 495.666)" fill="#e6e6e6"/>
      <ellipse id="Ellipse_7" data-name="Ellipse 7" cx="5.12" cy="5.12" rx="5.12" ry="5.12" transform="translate(149.668 146.862)" fill="#f2f2f2"/>
      <path id="Path_14" data-name="Path 14" d="M649.817,720.363l1.209,10.885-10.884-1.21v-13.3Z" transform="translate(-567.596 -242.892)" fill="#ffb8b8"/>
      <path id="Path_15" data-name="Path 15" d="M788.361,720.363l-1.21,10.885,10.885-1.21v-13.3Z" transform="translate(-592.453 -242.892)" fill="#ffb8b8"/>
      <path id="Path_16" data-name="Path 16" d="M803.274,492.226,798.436,616.8s-15.723,93.127-12.094,95.546,0,15.723,0,15.723l20.56,2.419s0-9.675,4.838-13.3,49.587-174.159,49.587-174.159l45.959,164.484s-1.209,9.675,2.419,9.675,4.838,13.3,4.838,13.3H935.1v-13.3s6.047-1.209,2.419-10.885-16.932-214.07-16.932-214.07Z" transform="translate(-722.263 -249.387)" fill="#2f2e41"/>
      <path id="Path_17" data-name="Path 17" d="M790.841,774.186s-6.047-3.628-8.466-1.209-21.77,26.608-21.77,26.608-26.608,16.932-2.419,21.77,42.33-18.142,43.54-20.56-1.209-21.77-2.419-19.351-4.838,1.21-6.047,0S790.841,774.186,790.841,774.186Z" transform="translate(-715.877 -296.716)" fill="#2f2e41"/>
      <path id="Path_18" data-name="Path 18" d="M951.558,774.186s6.047-3.628,8.466-1.209,21.77,26.608,21.77,26.608,26.608,16.932,2.419,21.77-42.33-18.142-43.54-20.56,1.209-21.77,2.419-19.351,4.838,1.21,6.047,0S951.558,774.186,951.558,774.186Z" transform="translate(-748.393 -296.716)" fill="#2f2e41"/>
      <ellipse id="Ellipse_8" data-name="Ellipse 8" cx="24.793" cy="24.793" rx="24.793" ry="24.793" transform="translate(129.389 14.255)" fill="#ffb8b8"/>
      <path id="Path_19" data-name="Path 19" d="M718,209.959l-3.629,37.493L743.4,253.5l7.257-44.749Z" transform="translate(-580.148 -157.002)" fill="#ffb8b8"/>
      <path id="Path_20" data-name="Path 20" d="M894.648,298.392s-7.257,15.723-33.864-1.209L811.2,459.248s66.519,39.911,108.85,9.676L905.533,305.648Z" transform="translate(-726.557 -216.408)" fill="#ff5467"/>
      <path id="Path_21" data-name="Path 21" d="M863.214,276.067l-22.979-3.628-2.419,15.722s-31.445,3.628-35.074,15.723l3.628,89.5s-10.885,19.351-1.209,31.445c0,0-15.723,32.655-3.628,38.7,0,0,27.817-13.3,44.749-9.676,0,0,9.676-2.419,9.676-9.676S863.214,276.067,863.214,276.067Z" transform="translate(-724.15 -212.225)" fill="#2f2e41"/>
      <path id="Path_22" data-name="Path 22" d="M909.467,279.716l13.3,3.628,1.209,16.932s32.655,20.56,33.864,32.655-24.189,70.147-24.189,70.147,9.675,16.932,6.047,27.817c0,0,15.723,31.445,6.047,39.912,0,0-18.142,4.838-20.56-2.419S901,377.68,910.677,337.769C910.677,337.769,901,286.972,909.467,279.716Z" transform="translate(-742.586 -213.455)" fill="#2f2e41"/>
      <path id="Path_23" data-name="Path 23" d="M918.507,323.112h-.455v-12.47a7.218,7.218,0,0,0-7.218-7.218H884.413a7.218,7.218,0,0,0-7.218,7.218v68.415a7.218,7.218,0,0,0,7.218,7.218h26.421a7.218,7.218,0,0,0,7.218-7.218V331.989h.455Z" transform="translate(-737.716 -217.464)" fill="#faf9fe"/>
      <path id="Path_24" data-name="Path 24" d="M934.874,381.165s-9.675-31.445-24.189-21.77,9.676,36.283,9.676,36.283Z" transform="translate(-742.595 -226.615)" fill="#ffb8b8"/>
      <path id="Path_25" data-name="Path 25" d="M860.685,355.573s16.932-20.56,25.4-10.885-14.513,31.445-14.513,31.445Z" transform="translate(-734.925 -224.003)" fill="#ffb8b8"/>
      <path id="Path_26" data-name="Path 26" d="M802.872,308.819s-6.047-1.209-9.676,9.676-16.932,52.006-16.932,59.262S781.1,414.04,807.709,409.2s58.053-38.7,58.053-38.7L848.83,345.1l-36.283,21.77Z" transform="translate(-720.651 -218.369)" fill="#2f2e41"/>
      <path id="Path_27" data-name="Path 27" d="M658.022,292.745l5.055,26.093,37.493-21.769-35.074,13.3-7.732-19.185Z" transform="translate(-570.576 -170.941)" opacity="0.1"/>
      <path id="Path_28" data-name="Path 28" d="M786.424,321.758l4.838,3.629,2.419-16.932Z" transform="translate(-592.33 -173.86)" opacity="0.1"/>
      <path id="Path_29" data-name="Path 29" d="M807.558,427s35.524-9.664,52.231-30.835C859.79,396.166,842.632,424.583,807.558,427Z" transform="translate(-725.942 -233.145)" opacity="0.1"/>
      <path id="Path_30" data-name="Path 30" d="M915.268,407.076s7.481,36.61,26.72,37.656C941.988,444.732,918.9,451.825,915.268,407.076Z" transform="translate(-744.154 -234.989)" opacity="0.1"/>
      <path id="Path_31" data-name="Path 31" d="M954.7,337.938s3.628,2.419,6.047,13.3,18.142,52.006,12.094,61.681-15.723,31.445-36.283,16.932L916,392.363l20.56-19.351,8.466,6.047Z" transform="translate(-744.277 -223.299)" fill="#2f2e41"/>
      <path id="Path_32" data-name="Path 32" d="M864.445,245.309s-20.794-33.7,1.354-35.453a56.466,56.466,0,0,0,21.24-5.787c7.342-3.736,16.583-6.575,21.5-.825a36.54,36.54,0,0,0,7.434,6.887c4.32,2.865,9.318,7.509,6.55,12.491l-4.537,8.167-6.352,16.335c1.479-7.046,1.517-12.961-2.269-15.881,0,0-21.119,8.987-31.762-7.26C865.688,215.043,861.9,243.181,864.445,245.309Z" transform="translate(-734.063 -199.972)" fill="#2f2e41"/>
      <circle id="Ellipse_9" data-name="Ellipse 9" cx="6.047" cy="6.047" r="6.047" transform="translate(154.182 104.358)" fill="#f9b33e"/>
    </g>
    <g id="Group_10" data-name="Group 10" transform="translate(1327.752 236.05)">
      <ellipse id="Ellipse_17" data-name="Ellipse 17" cx="88.124" cy="8.725" rx="88.124" ry="8.725" transform="translate(0 477.265)" fill="#e6e6e6"/>
      <path id="Path_48" data-name="Path 48" d="M361.471,586.752h0a11.343,11.343,0,0,1-10.107-13.979l7.9-32.574h14.471v35.247a11.343,11.343,0,0,1-12.26,11.306Z" transform="translate(-213.883 -286.961)" fill="#ffb8b8"/>
      <path id="Path_49" data-name="Path 49" d="M337.416,336.913A243.077,243.077,0,0,1,294,341.047a305.9,305.9,0,0,1-41.345-2.756S254.725,260.425,294,261.8C336.1,263.28,337.416,336.913,337.416,336.913Z" transform="translate(-201.34 -251.467)" fill="#2f2e41"/>
      <circle id="Ellipse_18" data-name="Ellipse 18" cx="12.404" cy="12.404" r="12.404" transform="translate(80.259 0)" fill="#2f2e41"/>
      <path id="Path_50" data-name="Path 50" d="M134.181,671.2l17.227,2.067L161.4,538.9l-30.32,8.958Z" transform="translate(-16.711 -214.34)" fill="#ffb8b8"/>
      <path id="Path_51" data-name="Path 51" d="M65.451,663.818l-16.883,7.236L37.887,537.715l30.32,8.958Z" transform="translate(-4.83 -214.189)" fill="#ffb8b8"/>
      <ellipse id="Ellipse_19" data-name="Ellipse 19" cx="25.07" cy="25.07" rx="25.07" ry="25.07" transform="translate(67.311 26.981)" fill="#ffb8b8"/>
      <path id="Path_52" data-name="Path 52" d="M320.167,419.543H279.51V359.19c10.281-6.751,6.655-18.792,0-31.986l36.177-1.034c-5.421,16.224-3.532,28.373,11.714,33.076Z" transform="translate(-204.764 -259.675)" fill="#ffb8b8"/>
      <path id="Path_53" data-name="Path 53" d="M350.29,607.9c-20.21-6.467-35.228,1.134-46.858,17.916L290.34,574.825l-19.294,42.034c-16.678-18.293-37.355-25.508-60.64-25.5,2.881-56.677,12.335-101.015,37.211-137.817,2.211-3.271,3.025-14.205,5.513-17.227l-14.85-46.554a24.109,24.109,0,0,1,13.277-18.349l22.245-10.9,18.605,31.009,16.538-33.765,27.877,9.113a11.828,11.828,0,0,1,8.149,10.969l-22.244,85.348C318.449,500.608,331.538,551.979,350.29,607.9Z" transform="translate(-195.954 -263.703)" fill="#2f2e41"/>
      <path id="Path_54" data-name="Path 54" d="M374.684,522.671l-21.362-2.756L342.3,440.67l2.756-75.8,6.7,1.267a23.846,23.846,0,0,1,19.4,22.679Z" transform="translate(-212.768 -264.609)" fill="#2f2e41"/>
      <path id="Path_55" data-name="Path 55" d="M208.751,587.18h0a11.344,11.344,0,0,0,13.858-10.272l2.313-33.437L211.128,539.1,200.48,572.7a11.343,11.343,0,0,0,8.271,14.482Z" transform="translate(-194.621 -286.82)" fill="#ffb8b8"/>
      <path id="Path_56" data-name="Path 56" d="M226.944,526.148l-16.538-4.134,22.556-129.072a21.91,21.91,0,0,1,14.654-17.014h0l5.513,55.127Z" transform="translate(-195.954 -266.018)" fill="#2f2e41"/>
      <path id="Path_57" data-name="Path 57" d="M275.839,299.184h40.237l1.459-8.127a14.558,14.558,0,0,0-14.519-17.13l-15.076.2a14.559,14.559,0,0,0-13.89,18.263Z" transform="translate(-204.006 -253.015)" fill="#2f2e41"/>
      <path id="Path_58" data-name="Path 58" d="M254.069,804.711h0a13.321,13.321,0,0,1-12.863-9.857l-1.19-4.42a8.747,8.747,0,0,1-.25-3.214l2.264-20.941c4.317-5.352,10.594-6.642,19.521-2.44l5.517,24.641a13.321,13.321,0,0,1-13,16.231Z" transform="translate(-199.691 -315.153)" fill="#2f2e41"/>
      <path id="Path_59" data-name="Path 59" d="M339.364,804.711h0a13.321,13.321,0,0,1-12.863-9.858l-1.19-4.419a8.746,8.746,0,0,1-.25-3.215l2.264-20.94c4.317-5.352,10.594-6.642,19.521-2.44l5.517,24.641a13.321,13.321,0,0,1-13,16.231Z" transform="translate(-210.564 -315.153)" fill="#2f2e41"/>
      <circle id="Ellipse_20" data-name="Ellipse 20" cx="6.202" cy="6.202" r="6.202" transform="translate(88.528 151.598)" fill="#e6e6e6"/>
      <circle id="Ellipse_21" data-name="Ellipse 21" cx="6.202" cy="6.202" r="6.202" transform="translate(88.528 177.784)" fill="#e6e6e6"/>
      <circle id="Ellipse_22" data-name="Ellipse 22" cx="6.202" cy="6.202" r="6.202" transform="translate(88.528 203.969)" fill="#e6e6e6"/>
    </g>
  </g>
</svg>
