<svg xmlns="http://www.w3.org/2000/svg" width="297.31" height="371.853" viewBox="0 0 297.31 371.853">
  <g id="Icon_ionic-ios-notifications" data-name="Icon ionic-ios-notifications" transform="translate(-6.761 -3.93)">
    <path id="Path_218" data-name="Path 218" d="M59.4,77.594c28.9,0,44.7-20.447,44.7-49.258H14.6C14.6,57.147,30.4,77.594,59.4,77.594Z" transform="translate(95.828 298.19)" fill="#faa10f"/>
    <path id="Path_219" data-name="Path 219" d="M300.307,279.312c-14.313-18.867-42.473-29.927-42.473-114.408,0-86.713-38.291-121.565-73.98-129.929-3.346-.836-5.762-1.952-5.762-5.483V26.8c0-12.454-10.223-22.956-22.677-22.863-12.454-.186-22.677,10.409-22.677,22.863v2.7c0,3.439-2.416,4.647-5.762,5.483C91.193,43.432,53,78.191,53,164.9c0,84.482-28.161,95.449-42.473,114.408A18.448,18.448,0,0,0,25.3,308.867H285.623C300.772,308.867,309.508,291.394,300.307,279.312Z" transform="translate(0 0)" fill="#faa10f"/>
  </g>
</svg>
