<svg xmlns="http://www.w3.org/2000/svg" width="785.378" height="764.411" viewBox="0 0 785.378 764.411">
  <g id="Group_989" data-name="Group 989" transform="translate(-47.46 -25.425)">
    <g id="Group_963" data-name="Group 963" transform="translate(238.469 248.405)">
      <g id="Group_962" data-name="Group 962">
        <path id="Path_695" data-name="Path 695" d="M310.056,259.909c7.337,1.392,13.279,6.78,17.893,12.651,9.4,11.957,14.894,26.626,17.717,41.572s3.092,30.248,2.922,45.458c-.33,29.131-2.249,58.221-4.293,87.282-.314,4.459-.869,9.413-4.26,12.323-2.311,1.983-5.475,2.575-8.49,3.013a175.562,175.562,0,0,1-27.308,1.821,11.271,11.271,0,0,1-5.386-.987c-3.649-2.014-4.048-7.011-3.963-11.179.553-27.056,2.486-54.066,3.56-81.107,1.107-27.849,1.227-56.282-7.094-82.881-1.758-5.621-3.885-11.734-1.731-17.215,1.65-4.2,5.487-7.079,9.143-9.725,3.308-2.394,8.391-4.614,10.937-1.423Z" transform="translate(-11.974 -30.129)" fill="#e4b58c"/>
        <path id="Path_696" data-name="Path 696" d="M315.959,462.929c3.013-.44,6.179-1.029,8.49-3.013,3.391-2.912,3.946-7.866,4.258-12.323,2.043-29.063,3.965-58.151,4.293-87.284.173-15.208-.1-30.511-2.922-45.458s-8.316-29.616-17.717-41.572c-4.572-5.816-10.454-11.148-17.7-12.6,3.2-1.931,7.269-3.193,9.459-.448l.353.4c7.337,1.394,13.279,6.78,17.893,12.651,9.4,11.957,14.894,26.626,17.717,41.572s3.092,30.25,2.922,45.458c-.33,29.133-2.249,58.221-4.293,87.284-.314,4.457-.869,9.411-4.26,12.323-2.311,1.983-5.475,2.573-8.49,3.013a175.34,175.34,0,0,1-27.308,1.819c-.7-.008-1.408-.039-2.109-.1A175.414,175.414,0,0,0,315.959,462.929Z" transform="translate(-6.392 -29.453)" fill="#e6e6e6" style="mix-blend-mode: multiply;isolation: isolate"/>
        <path id="Path_697" data-name="Path 697" d="M229.218,259.756c-7.337,1.392-13.277,6.78-17.891,12.651-9.4,11.957-14.9,26.626-17.717,41.572s-3.094,30.248-2.922,45.458c.328,29.131,2.249,58.221,4.293,87.282.312,4.459.867,9.413,4.258,12.323,2.311,1.983,5.477,2.575,8.49,3.013a175.591,175.591,0,0,0,27.31,1.821,11.281,11.281,0,0,0,5.386-.987c3.647-2.014,4.048-7.011,3.963-11.179-.555-27.056-2.488-54.064-3.562-81.107-1.107-27.847-1.225-56.282,7.1-82.881,1.758-5.621,3.885-11.734,1.731-17.215-1.652-4.2-5.489-7.079-9.145-9.725-3.306-2.395-8.389-4.614-10.937-1.423Z" transform="translate(-104.042 -30.273)" fill="#e4b58c"/>
        <path id="Path_698" data-name="Path 698" d="M217.734,462.776c-3.015-.44-6.179-1.03-8.49-3.013-3.391-2.912-3.946-7.866-4.26-12.323-2.044-29.063-3.963-58.151-4.293-87.284-.171-15.208.1-30.511,2.922-45.458s8.318-29.616,17.717-41.572c4.574-5.816,10.454-11.148,17.7-12.6-3.2-1.931-7.267-3.193-9.46-.448l-.353.4c-7.337,1.394-13.277,6.782-17.891,12.651-9.4,11.957-14.9,26.628-17.717,41.572s-3.094,30.25-2.922,45.458c.328,29.133,2.249,58.221,4.293,87.284.312,4.457.867,9.411,4.258,12.323,2.311,1.983,5.477,2.573,8.49,3.013a175.593,175.593,0,0,0,27.31,1.819c.7-.008,1.406-.039,2.107-.1A175.373,175.373,0,0,1,217.734,462.776Z" transform="translate(-104.042 -29.596)" fill="#e6e6e6" style="mix-blend-mode: multiply;isolation: isolate"/>
        <path id="Path_699" data-name="Path 699" d="M470.054,296.943c-12.368-2.21-22.708-10.318-32.983-17.546a305.846,305.846,0,0,0-72.281-37.456c-5.231-1.883-11-.035-16.152,1.223-4.558,1.111-10.169,2.685-13.227,6.532-5.844,7.35-8.044,16.914-9.3,26.219-.326,2.41-.576,4.82-.8,7.232-.231-2.511-.5-5.02-.836-7.528-1.258-9.3-3.457-18.869-9.3-26.219s-26.663-8.581-26.663-8.581a300.052,300.052,0,0,0-75,38.282c-10.276,7.228-20.616,15.336-32.983,17.546a15.427,15.427,0,0,0,8.882,15.813c3.447,1.495,7.335,1.65,10.863,2.941s6.931,4.43,6.516,8.164c-.277,2.488-2.21,4.723-1.865,7.2.467,3.377,4.622,4.715,8.027,4.913a43.486,43.486,0,0,0,19.2-3.279c-4.246,2.8-3.277,9.828.564,13.163s9.254,3.986,14.314,4.5a95.178,95.178,0,0,0,1.617,25.313s-17,60.3-28.46,89.213c9.215,2.581,17.168,8.288,25.418,13.135a151.319,151.319,0,0,0,40.7,16.472l-2.391,12.418,52.47,8.36,25.022-19.8a151.3,151.3,0,0,0,43.569-17.155c8.25-4.847,16.2-10.555,25.416-13.136-11.456-28.912-28.46-89.213-28.46-89.213a95.1,95.1,0,0,0,1.617-25.313c5.06-.508,10.474-1.163,14.314-4.5s4.812-10.363.566-13.163a43.473,43.473,0,0,0,19.2,3.279c3.4-.2,7.559-1.536,8.029-4.913.343-2.48-1.588-4.715-1.865-7.2-.415-3.734,2.988-6.871,6.516-8.164s7.416-1.446,10.863-2.941A15.43,15.43,0,0,0,470.054,296.943Z" transform="translate(-113.662 -46.189)" fill="#ff5467"/>
        <g id="Group_959" data-name="Group 959" transform="translate(106.528 243.623)" style="mix-blend-mode: multiply;isolation: isolate">
          <path id="Path_700" data-name="Path 700" d="M200.94,356.268l-.017.047c.068.017.13.045.2.064Z" transform="translate(-200.923 -181.425)" fill="#e6e6e6"/>
          <path id="Path_701" data-name="Path 701" d="M419.93,273.331c-6.406-1.144-12.265-3.876-17.857-7.243a15.445,15.445,0,0,1-8.95,14.413c-3.447,1.493-7.336,1.648-10.863,2.941s-6.931,4.43-6.516,8.162c.277,2.489,2.208,4.723,1.865,7.2-.469,3.377-4.622,4.715-8.027,4.911a43.475,43.475,0,0,1-19.2-3.277c4.246,2.8,3.277,9.828-.566,13.163s-9.254,3.986-14.314,4.5a95.1,95.1,0,0,1-1.617,25.313s17,60.3,28.46,89.213c-9.213,2.579-17.166,8.288-25.416,13.136a151.357,151.357,0,0,1-43.569,17.155l-25.022,19.8-33.464-5.332L233.79,483l52.47,8.36,25.022-19.8a151.408,151.408,0,0,0,43.569-17.155c8.25-4.849,16.2-10.557,25.416-13.137-11.456-28.912-28.46-89.211-28.46-89.211a95.111,95.111,0,0,0,1.617-25.315c5.06-.508,10.474-1.161,14.314-4.494s4.812-10.363.566-13.163a43.5,43.5,0,0,0,19.2,3.277c3.4-.2,7.559-1.534,8.029-4.911.343-2.482-1.588-4.715-1.865-7.2-.415-3.734,2.988-6.869,6.516-8.162s7.416-1.448,10.863-2.943A15.429,15.429,0,0,0,419.93,273.331Z" transform="translate(-170.067 -266.088)" fill="#e6e6e6"/>
        </g>
        <path id="Path_702" data-name="Path 702" d="M338.772,285.3c-4.05,0-7.544-2.65-10.813-5.041-6.012-4.393-12.916-8.465-20.35-8.048-1.353.076-2.877.419-3.558,1.592-1.09,1.883.789,4.087,2.6,5.295,4.225,2.819,9.047,4.642,13.283,7.443s8.027,6.984,8.453,12.046" transform="translate(2.122 -16.748)" fill="none" stroke="#ccc" stroke-miterlimit="10" stroke-width="0.27" style="mix-blend-mode: multiply;isolation: isolate"/>
        <path id="Path_703" data-name="Path 703" d="M310.346,299.253a180.5,180.5,0,0,1-14.231-22.318" transform="translate(-5.027 -12.282)" fill="none" stroke="#ccc" stroke-miterlimit="10" stroke-width="0.27" style="mix-blend-mode: multiply;isolation: isolate"/>
        <path id="Path_704" data-name="Path 704" d="M309.416,292.328a58.422,58.422,0,0,1-13.452-8.021" transform="translate(-5.168 -5.361)" fill="none" stroke="#ccc" stroke-miterlimit="10" stroke-width="0.27" style="mix-blend-mode: multiply;isolation: isolate"/>
        <path id="Path_705" data-name="Path 705" d="M300.175,304.326A38.212,38.212,0,0,1,289.6,289.835" transform="translate(-11.144 -0.171)" fill="none" stroke="#ccc" stroke-miterlimit="10" stroke-width="0.27" style="mix-blend-mode: multiply;isolation: isolate"/>
        <path id="Path_706" data-name="Path 706" d="M298.269,297.443a26.691,26.691,0,0,1-6.984-.4" transform="translate(-9.561 6.597)" fill="none" stroke="#ccc" stroke-miterlimit="10" stroke-width="0.27" style="mix-blend-mode: multiply;isolation: isolate"/>
        <path id="Path_707" data-name="Path 707" d="M221.294,233.853A68.823,68.823,0,0,1,204.488,256.4a11.351,11.351,0,0,0,7.742,3.346,19.052,19.052,0,0,0-1.514,6.113,24.272,24.272,0,0,0,7.674-1.834,38.572,38.572,0,0,1-12.94,18.19,29.409,29.409,0,0,0,28.293,1.328,42.571,42.571,0,0,1-4.533,14.072,7.152,7.152,0,0,0,6.334-1.629l-.578,7.546a40.725,40.725,0,0,0,8.054-6.481,67.978,67.978,0,0,1-1.5,18.624A52.764,52.764,0,0,0,269.875,300.9a33.986,33.986,0,0,0,0,10.406,30.8,30.8,0,0,0,8.318-7.971c1.121,3.215,3.54,7.15,6.7,6.105a6.537,6.537,0,0,0,2.484-1.867l6.239-6.483a30.51,30.51,0,0,0,8.271,8.06c1.338.876,3.025,1.66,4.453.952,1.121-.556,1.675-1.838,2.208-2.994a33.519,33.519,0,0,1,9.566-12.185,3.312,3.312,0,0,1,2.154-.944,3.525,3.525,0,0,1,2.237,1.617c4.279,5.361,8.469,10.877,13.675,15.29s11.613,7.693,18.361,7.74a79.837,79.837,0,0,0-3.308-22.952,22.368,22.368,0,0,0,18.737,4.707,53.034,53.034,0,0,1-4.661-16.9,9.055,9.055,0,0,0,6.385,1.2,13.779,13.779,0,0,1-2.972-9.593,31.621,31.621,0,0,0,12.412.124,31.337,31.337,0,0,1-7.715-25.362,37.277,37.277,0,0,0,8.868,4.048c-6.055-7.022-5.708-17.442-6.229-26.81-1.349-24.216-11.534-48.443-30-63.545s-45.5-19.6-66.43-8.4a75.271,75.271,0,0,0-15.352,11.33,126.242,126.242,0,0,0-31.688,46.629Z" transform="translate(-91.048 -132.485)" fill="#3d112b"/>
        <path id="Path_708" data-name="Path 708" d="M230.185,185.371c-1.076,8.16.609,16.717-.074,24.916a42.3,42.3,0,0,1-.843,5.745c-1.817,8.12-6.449,15.012-8.279,23.117-4.06,17.99,7.939,31.31,19.879,40.372,12.267,9.308,27.124,14.446,41.787,15.906,11.137,1.109,22.519-1.475,33.206-5.665,9.52-3.732,20.158-8.952,25.874-18.931,3.608-6.3,4.568-13.486,4.624-20.833a60.084,60.084,0,0,0-1.349-13.229c-.921-4.219-2.918-8.079-3.585-12.35-.671-4.295.12-8.775,1.161-12.922,1.675-6.677,3.854-13.258,2.85-20.294a35.856,35.856,0,0,0-7.687-17.246c-5.212-6.449-12.069-10.892-19.117-14.456-14.07-7.116-29.8-10.919-45.266-9.147-14.621,1.677-32.058,8.843-39.787,24.117a35.135,35.135,0,0,0-2.691,7.189A32.417,32.417,0,0,0,230.185,185.371Z" transform="translate(-76.313 -131.524)" fill="#e4b58c"/>
        <path id="Path_709" data-name="Path 709" d="M239.592,190.891c-1.126,3.662.12,7.2,2.784,7.908s5.735-1.695,6.862-5.357-.122-7.2-2.786-7.908S240.716,187.229,239.592,190.891Z" transform="translate(-58.481 -98.206)" fill="#3d112b"/>
        <path id="Path_710" data-name="Path 710" d="M269.271,191.01c1.125,3.662-.122,7.2-2.786,7.907s-5.735-1.693-6.862-5.355.122-7.2,2.786-7.908S268.144,187.346,269.271,191.01Z" transform="translate(-39.674 -98.094)" fill="#3d112b"/>
        <path id="Path_711" data-name="Path 711" d="M292.368,202.737c-.114,6.189-5.613,11.121-12.284,11.016s-11.988-5.208-11.875-11.4,5.613-11.123,12.284-11.016S292.481,196.546,292.368,202.737Z" transform="translate(-31.227 -92.643)" fill="#6d432c" opacity="0.2" style="mix-blend-mode: multiply;isolation: isolate"/>
        <path id="Path_712" data-name="Path 712" d="M250.584,204.624c-.112,6.189-5.613,11.121-12.284,11.016s-11.988-5.208-11.875-11.4,5.615-11.121,12.284-11.016S250.7,198.433,250.584,204.624Z" transform="translate(-70.455 -90.871)" fill="#6d432c" opacity="0.2" style="mix-blend-mode: multiply;isolation: isolate"/>
        <path id="Path_713" data-name="Path 713" d="M257.764,210.692a30.945,30.945,0,0,0,13.413-5.109c2.629-1.7,5.762-3.761,8.634-2.028a4.685,4.685,0,0,1,1.956,2.47c.876,2.482.048,5.02-1.266,7.131-2.328,3.744-6.119,6.354-10.078,8.294-6.307,3.09-14.087,4.649-20.2,1.2a14.336,14.336,0,0,1-6.794-8.973l-.016-.066a4.075,4.075,0,0,1,5.376-4.7C251.629,209.932,255.234,210.954,257.764,210.692Z" transform="translate(-54.613 -81.787)" fill="#a58265"/>
        <path id="Path_714" data-name="Path 714" d="M246.634,216.706c.157.1.306.205.465.3,6.119,3.449,13.9,1.89,20.2-1.2a35.082,35.082,0,0,0,3.821-2.171c-2.474-3.372-7.567-5.3-13.116-4.56C252.559,209.8,248.212,212.9,246.634,216.706Z" transform="translate(-51.481 -76.141)" fill="#cca07f"/>
        <path id="Path_715" data-name="Path 715" d="M216.829,183.146a9.424,9.424,0,0,0-3.676,1.662,7.917,7.917,0,0,0-2.838,5.541,12.22,12.22,0,0,0,1.142,5.708,23.4,23.4,0,0,0,7.185,9.341,14.638,14.638,0,0,0,6.77,3.127,9.978,9.978,0,0,0,11.635-8.643,12.972,12.972,0,0,0-1.183-7.119C233.092,186.613,224.906,181.213,216.829,183.146Z" transform="translate(-85.603 -100.707)" fill="#e4b58c"/>
        <path id="Path_716" data-name="Path 716" d="M214.779,186.626a15.9,15.9,0,0,1,11.961,7.505c.667,1.074-1.074,1.974-1.737.907a13.752,13.752,0,0,0-4.851-4.665,9.119,9.119,0,0,0,1.95,7.5c.8.975-.648,2.3-1.446,1.322a11.256,11.256,0,0,1-2.33-9.675l.008-.021a13.917,13.917,0,0,0-3.664-.917C213.418,188.452,213.519,186.494,214.779,186.626Z" transform="translate(-82.324 -97.072)" fill="#6d432c" opacity="0.2" style="mix-blend-mode: multiply;isolation: isolate"/>
        <circle id="Ellipse_56" data-name="Ellipse 56" cx="8.59" cy="8.59" r="8.59" transform="translate(129.423 97.654)" fill="#ff5467"/>
        <path id="Path_717" data-name="Path 717" d="M260,196.559c0,2.668-2.794,4.83-6.241,4.83s-6.239-2.162-6.239-4.83,2.794-4.832,6.239-4.832S260,193.891,260,196.559Z" transform="translate(-50.652 -92.277)" fill="#e4b58c"/>
        <g id="Group_960" data-name="Group 960" transform="translate(195.155 97.654)">
          <path id="Path_718" data-name="Path 718" d="M258.487,191.232c-5.417-1.19-13.25-.2-11.639,6.538,1.365,5.714,10.078,6.652,15.034,4.878,1.627-.584.481-2.86-1.138-2.28-2.912,1.043-8.783.834-10.642-1.84-1.187-1.7-.849-4.258,1.408-4.882a12.6,12.6,0,0,1,6.045-.056c1.677.368,2.627-1.985.933-2.358Z" transform="translate(-246.634 -190.8)" fill="#6d432c" opacity="0.2" style="mix-blend-mode: multiply;isolation: isolate"/>
        </g>
        <path id="Path_719" data-name="Path 719" d="M312.047,154.528a3.8,3.8,0,0,1,.2.692,6.784,6.784,0,0,1-.132,2.344,97.57,97.57,0,0,1-15.456,39.168,81.753,81.753,0,0,1-35.9,27.434c-4,1.553-8.244,2.805-12.517,2.441a8.337,8.337,0,0,0,3.942-5.161,28.03,28.03,0,0,1-19.037,4.723,8.228,8.228,0,0,0,5.875-3.046,27.513,27.513,0,0,1-22.857-2.288c4.806-2.168,6.708-7.928,7.623-13.122,1.5-8.537,1.733-17.257,3.2-25.8s4.341-17.155,10.252-23.495a45.767,45.767,0,0,1,10.154-7.792c9.971-5.958,21.271-10.15,32.886-10.194a40.8,40.8,0,0,1,17.533,3.821C301.247,145.866,310.43,150.366,312.047,154.528Z" transform="translate(-80.086 -140.433)" fill="#3d112b"/>
        <path id="Path_720" data-name="Path 720" d="M264.966,147.5c6.253-1.627,12.723,1.214,18.477,4.153a105.153,105.153,0,0,1,11.23,6.421c13.787,9.326,23.5,24.1,27.906,40.153,2.48,9.033,3.356,18.648,1.338,27.795s-7.117,17.793-14.863,23.064a34.4,34.4,0,0,0,.839-23.491,6.523,6.523,0,0,1-4.227,4.45,94.124,94.124,0,0,0-6.121-16.866,6.329,6.329,0,0,1-4.795,3.858l-17.009-18.746c-6.012-6.625-12.149-13.452-15.4-21.787-2.712-6.958-3.24-14.6-2.792-22.054a11.862,11.862,0,0,1,1.026-4.83,4.429,4.429,0,0,1,3.946-2.561" transform="translate(-39.485 -134.248)" fill="#3d112b"/>
        <path id="Path_721" data-name="Path 721" d="M302.661,182.617a9.412,9.412,0,0,1,3.676,1.662,7.91,7.91,0,0,1,2.838,5.541,12.194,12.194,0,0,1-1.14,5.708,23.381,23.381,0,0,1-7.185,9.339A14.64,14.64,0,0,1,294.08,208a9.978,9.978,0,0,1-11.635-8.643,12.988,12.988,0,0,1,1.181-7.119C286.4,186.084,294.586,180.684,302.661,182.617Z" transform="translate(-17.959 -101.204)" fill="#e4b58c"/>
        <path id="Path_722" data-name="Path 722" d="M297.186,185.571a15.89,15.89,0,0,0-11.961,7.505c-.667,1.072,1.074,1.972,1.737.907a13.757,13.757,0,0,1,4.851-4.667,9.117,9.117,0,0,1-1.95,7.5c-.8.975.648,2.3,1.446,1.324a11.262,11.262,0,0,0,2.331-9.677l-.008-.021a13.917,13.917,0,0,1,3.664-.915C298.545,187.4,298.446,185.439,297.186,185.571Z" transform="translate(-15.39 -98.062)" fill="#6d432c" opacity="0.2" style="mix-blend-mode: multiply;isolation: isolate"/>
        <circle id="Ellipse_57" data-name="Ellipse 57" cx="8.59" cy="8.59" r="8.59" transform="translate(265.614 101.624)" fill="#ff5467"/>
        <g id="Group_961" data-name="Group 961" transform="translate(219.453 76.285)">
          <path id="Path_723" data-name="Path 723" d="M267.961,184.091a14.9,14.9,0,0,0-7.276-1.08c-2.028.18-2.018-2.988,0-3.164a18.132,18.132,0,0,1,8.876,1.51c1.865.8.256,3.531-1.6,2.734Z" transform="translate(-259.167 -179.779)" fill="#3d112b"/>
        </g>
        <path id="Path_724" data-name="Path 724" d="M243.244,228.643a109.275,109.275,0,0,1-5.869,33.656,20.719,20.719,0,0,0-1.6,7.007,17.493,17.493,0,0,0,1.625,6.175c8.232,20.082,19.382,38.726,30.147,57.511a7.69,7.69,0,0,0,1.823,2.385c6.243,4.8,28.886-48.478,31.124-53.723,2.2-5.161,5.562-11.125,5.754-16.8a28.2,28.2,0,0,0-.578-5.7l-5.828-34.2a6.626,6.626,0,0,0-.772-2.488,6.026,6.026,0,0,0-2.974-2.059,60.011,60.011,0,0,0-47.683,1.167c-2.193,1.026-4.56,2.482-5.072,4.907Z" transform="translate(-61.674 -69.454)" fill="#e4b58c"/>
        <path id="Path_725" data-name="Path 725" d="M273.9,274.452a5.258,5.258,0,0,0-4.306-3.944c-1.844-.2-3.659.653-5.341,2.586a19.965,19.965,0,0,0-2.842,4.291,11.185,11.185,0,0,0-5.813-5.32c-2.581-.944-6.084-.516-7.782,2.115a6.249,6.249,0,0,0-.167,6.078,11.863,11.863,0,0,0,3.176,3.777,40.855,40.855,0,0,0,6.832,4.727c-1.621,2.09-3.3,4.155-5.058,6.136a2.262,2.262,0,0,0,3.379,3.007c1.778-2,3.469-4.077,5.1-6.183l2.788,5.409a2.261,2.261,0,1,0,4.021-2.069L265,289.452a17.31,17.31,0,0,0,8.653-10.3A8.511,8.511,0,0,0,273.9,274.452Zm-22.184,3.833a1.868,1.868,0,0,1-.1-1.652,1.62,1.62,0,0,1,1.351-.51,3.233,3.233,0,0,1,1.084.19,7.1,7.1,0,0,1,3.769,4.023,17.8,17.8,0,0,1,1.092,3.942,36.5,36.5,0,0,1-5.148-3.68A7.965,7.965,0,0,1,251.715,278.285Zm17.6-.432a12.9,12.9,0,0,1-5.431,7.053,15.891,15.891,0,0,1,3.775-8.843c.766-.878,1.247-1.064,1.392-1.064l.016,0a.967.967,0,0,1,.461.632A4.23,4.23,0,0,1,269.319,277.852Z" transform="translate(-51.191 -18.343)" fill="#80475a"/>
        <path id="Path_726" data-name="Path 726" d="M242.869,221.893s20.464,8.661,48.341,1.665L236.281,259.18A135.176,135.176,0,0,0,242.869,221.893Z" transform="translate(-61.2 -63.956)" fill="#e6e6e6" style="mix-blend-mode: multiply;isolation: isolate"/>
        <path id="Path_727" data-name="Path 727" d="M188.46,285.143c4.048,0,7.544-2.65,10.813-5.041,6.01-4.393,12.914-8.465,20.348-8.048,1.355.076,2.879.419,3.558,1.592,1.092,1.883-.787,4.087-2.6,5.295-4.225,2.819-9.047,4.642-13.283,7.443s-8.027,6.984-8.451,12.046" transform="translate(-106.096 -16.891)" fill="none" stroke="#ccc" stroke-miterlimit="10" stroke-width="0.27" style="mix-blend-mode: multiply;isolation: isolate"/>
        <path id="Path_728" data-name="Path 728" d="M206.809,299.1a180.473,180.473,0,0,0,14.229-22.318" transform="translate(-88.869 -12.425)" fill="none" stroke="#ccc" stroke-miterlimit="10" stroke-width="0.27" style="mix-blend-mode: multiply;isolation: isolate"/>
        <path id="Path_729" data-name="Path 729" d="M207.361,292.175a58.417,58.417,0,0,0,13.452-8.021" transform="translate(-88.351 -5.504)" fill="none" stroke="#ccc" stroke-miterlimit="10" stroke-width="0.27" style="mix-blend-mode: multiply;isolation: isolate"/>
        <path id="Path_730" data-name="Path 730" d="M215.209,304.173a38.193,38.193,0,0,0,10.576-14.491" transform="translate(-80.983 -0.314)" fill="none" stroke="#ccc" stroke-miterlimit="10" stroke-width="0.27" style="mix-blend-mode: multiply;isolation: isolate"/>
        <path id="Path_731" data-name="Path 731" d="M215.377,297.29a26.689,26.689,0,0,0,6.984-.4" transform="translate(-80.825 6.454)" fill="none" stroke="#ccc" stroke-miterlimit="10" stroke-width="0.27" style="mix-blend-mode: multiply;isolation: isolate"/>
        <rect id="Rectangle_121" data-name="Rectangle 121" width="87.198" height="8.993" transform="translate(165.539 206.726)" fill="#ff5467"/>
        <path id="Path_732" data-name="Path 732" d="M304.565,313.769c-2.267,1.712-5.493.677-8.091-.475q-6.747-2.993-13.24-6.516" transform="translate(-17.12 15.736)" fill="none" stroke="#ccc" stroke-miterlimit="10" stroke-width="0.27" style="mix-blend-mode: multiply;isolation: isolate"/>
        <path id="Path_733" data-name="Path 733" d="M298.718,310.367a25.1,25.1,0,0,1-9.312,8.382" transform="translate(-11.325 19.105)" fill="none" stroke="#ccc" stroke-miterlimit="10" stroke-width="0.27" style="mix-blend-mode: multiply;isolation: isolate"/>
        <path id="Path_734" data-name="Path 734" d="M304.263,310.274a40.533,40.533,0,0,1-20.6,2.594" transform="translate(-16.717 19.018)" fill="none" stroke="#ccc" stroke-miterlimit="10" stroke-width="0.27" style="mix-blend-mode: multiply;isolation: isolate"/>
        <path id="Path_735" data-name="Path 735" d="M216.027,313.616c2.268,1.712,5.495.677,8.091-.475q6.747-2.993,13.242-6.516" transform="translate(-80.215 15.592)" fill="none" stroke="#ccc" stroke-miterlimit="10" stroke-width="0.27" style="mix-blend-mode: multiply;isolation: isolate"/>
        <path id="Path_736" data-name="Path 736" d="M216.055,310.214a25.092,25.092,0,0,0,9.31,8.382" transform="translate(-80.189 18.961)" fill="none" stroke="#ccc" stroke-miterlimit="10" stroke-width="0.27" style="mix-blend-mode: multiply;isolation: isolate"/>
        <path id="Path_737" data-name="Path 737" d="M215.975,310.121a40.54,40.54,0,0,0,20.6,2.594" transform="translate(-80.264 18.874)" fill="none" stroke="#ccc" stroke-miterlimit="10" stroke-width="0.27" style="mix-blend-mode: multiply;isolation: isolate"/>
        <path id="Path_738" data-name="Path 738" d="M386.109,400.759c5.553,1.991,11.137,4.326,15.487,8.308s7.3,9.933,6.311,15.747c-1.064,6.228-6.433,11.032-12.37,13.2s-12.416,2.156-18.735,2.028q-31.706-.64-63.248-4.364c-5.52-.651-11.714-1.778-14.811-6.392a16.233,16.233,0,0,1-2.243-8.128,45.446,45.446,0,0,1,8.4-29.069c1.241-1.726,3.387-3.54,5.237-2.489C310.133,389.6,361.69,392,386.109,400.759Z" transform="translate(-4.742 93.197)" fill="#3d112b"/>
        <path id="Path_739" data-name="Path 739" d="M309.09,391.668c7.548-1.861,16.158.3,24.22.873a150.991,150.991,0,0,1,42.414,8.857c2.9,1.035,5.875,2.228,7.947,4.5,4.919,5.4,2.282,14.725-3.538,19.134s-13.564,5.15-20.862,5.372a228.132,228.132,0,0,1-52.678-4.523c-3.93-.8-8.172-1.921-10.582-5.128-4.791-6.375-1.706-17.4,3-22.855A18.889,18.889,0,0,1,309.09,391.668Z" transform="translate(-7.382 94.737)" fill="#e4b58c"/>
        <rect id="Rectangle_122" data-name="Rectangle 122" width="215.766" height="145.595" transform="translate(103.308 303.818)" fill="#faa10f"/>
        <path id="Path_740" data-name="Path 740" d="M199.174,297.135v14.148H401.082V442.73H414.94V297.135Z" transform="translate(-96.037 6.683)" fill="#e6e6e6" style="mix-blend-mode: multiply;isolation: isolate"/>
        <path id="Path_741" data-name="Path 741" d="M458.83,417.04Q358.491,384.1,256.212,357.518c-23.605-6.134-48.874-11.966-71.959-4.1-15.1,5.148-28.727,17.232-31.6,32.927-1.98,10.83,1.39,22.236,7.8,31.188s15.646,15.6,25.608,20.29c9,4.236,18.628,6.968,28.233,9.556,73.082,19.7,148.812,32.307,224.362,27.715a6.876,6.876,0,0,0,6.968-4.289c5.01-8.164,9.774-16.61,12.41-25.821S458.83,417.04,458.83,417.04Z" transform="translate(-140.238 55.955)" fill="#80475a"/>
        <path id="Path_742" data-name="Path 742" d="M451.25,438.117a6.874,6.874,0,0,1-6.966,4.287c-75.552,4.591-151.28-8.017-224.362-27.715-9.607-2.588-19.231-5.32-28.233-9.557-9.962-4.69-19.2-11.34-25.608-20.29a43.9,43.9,0,0,1-8.31-22.874,36.1,36.1,0,0,0-5.087,12.785c-1.98,10.83,1.39,22.236,7.8,31.188s15.646,15.6,25.608,20.29c9,4.236,18.626,6.968,28.233,9.556,73.082,19.7,148.81,32.307,224.362,27.715a6.872,6.872,0,0,0,6.966-4.289c5.012-8.164,9.774-16.61,12.412-25.821a45.287,45.287,0,0,0,1.322-9.973A152.74,152.74,0,0,1,451.25,438.117Z" transform="translate(-140.215 67.549)" fill="#e6e6e6" style="mix-blend-mode: multiply;isolation: isolate"/>
        <path id="Path_743" data-name="Path 743" d="M355.86,424.6a5.258,5.258,0,0,0,3.944-4.306c.2-1.846-.653-3.659-2.588-5.341a19.95,19.95,0,0,0-4.289-2.842,11.181,11.181,0,0,0,5.32-5.815c.944-2.579.516-6.082-2.115-7.782a6.259,6.259,0,0,0-6.078-.167,11.824,11.824,0,0,0-3.777,3.178,40.928,40.928,0,0,0-4.729,6.83c-2.09-1.619-4.153-3.294-6.136-5.056a2.261,2.261,0,0,0-3.005,3.379c2,1.776,4.077,3.469,6.183,5.1l-5.411,2.786a2.262,2.262,0,0,0,2.071,4.023l5.611-2.891a17.3,17.3,0,0,0,10.3,8.653A8.495,8.495,0,0,0,355.86,424.6Zm-3.833-22.184a1.872,1.872,0,0,1,1.65-.1,1.617,1.617,0,0,1,.51,1.351,3.217,3.217,0,0,1-.19,1.084,7.1,7.1,0,0,1-4.023,3.771,17.757,17.757,0,0,1-3.94,1.092,36.643,36.643,0,0,1,3.68-5.15A7.928,7.928,0,0,1,352.027,402.414Zm.432,17.6a12.915,12.915,0,0,1-7.055-5.431,15.865,15.865,0,0,1,8.843,3.775c.88.764,1.064,1.247,1.064,1.392v.016a.979.979,0,0,1-.632.461A4.249,4.249,0,0,1,352.459,420.018Z" transform="translate(28.333 101.04)" fill="#ff5467"/>
        <path id="Path_744" data-name="Path 744" stroke="#815c9e" d="M176.763,352.246s41.85-3.129,254.191,66.928" fill="none" transform="translate(-117.077 58.402)" stroke-linecap="round" stroke-linejoin="round" stroke-width="1.08" stroke-dasharray="5.401"/>
        <path id="Path_745" data-name="Path 745" d="M167.968,404.963c-5.551,1.991-11.135,4.325-15.485,8.308s-7.305,9.933-6.311,15.745c1.064,6.229,6.433,11.034,12.37,13.2s12.416,2.156,18.735,2.028q31.706-.64,63.248-4.364c5.52-.653,11.714-1.778,14.811-6.394a16.241,16.241,0,0,0,2.243-8.126,45.458,45.458,0,0,0-8.4-29.069c-1.241-1.727-3.387-3.542-5.237-2.491C243.946,393.8,192.389,396.207,167.968,404.963Z" transform="translate(-145.978 97.142)" fill="#3d112b"/>
        <path id="Path_746" data-name="Path 746" d="M235.77,395.871c-7.548-1.863-16.158.3-24.22.872a150.922,150.922,0,0,0-42.414,8.857c-2.9,1.035-5.875,2.226-7.947,4.5-4.919,5.4-2.282,14.723,3.536,19.134s13.566,5.15,20.864,5.372a228.037,228.037,0,0,0,52.678-4.525c3.93-.8,8.172-1.919,10.582-5.126,4.791-6.375,1.706-17.4-3-22.857A18.9,18.9,0,0,0,235.77,395.871Z" transform="translate(-134.119 98.682)" fill="#e4b58c"/>
        <path id="Path_747" data-name="Path 747" d="M190,421.243Q290.341,388.3,392.623,361.721c23.605-6.134,48.874-11.966,71.959-4.1,15.1,5.148,28.727,17.232,31.595,32.925,1.98,10.832-1.39,22.238-7.8,31.19s-15.648,15.6-25.61,20.288c-9,4.238-18.626,6.968-28.231,9.558-73.082,19.7-148.812,32.3-224.362,27.715a6.876,6.876,0,0,1-6.968-4.289c-5.012-8.164-9.774-16.612-12.41-25.821S190,421.243,190,421.243Z" transform="translate(-105.237 59.901)" fill="#80475a"/>
        <path id="Path_748" data-name="Path 748" d="M197.538,442.321a6.874,6.874,0,0,0,6.966,4.287c75.552,4.591,151.281-8.019,224.362-27.715,9.607-2.588,19.231-5.32,28.233-9.556,9.962-4.69,19.2-11.34,25.608-20.29a43.919,43.919,0,0,0,8.31-22.876,36.135,36.135,0,0,1,5.087,12.785c1.98,10.832-1.39,22.238-7.8,31.19s-15.646,15.6-25.608,20.288c-9,4.238-18.628,6.968-28.233,9.558-73.082,19.7-148.812,32.3-224.362,27.715a6.876,6.876,0,0,1-6.968-4.289c-5.01-8.164-9.774-16.612-12.41-25.821a45.3,45.3,0,0,1-1.322-9.973A152.947,152.947,0,0,0,197.538,442.321Z" transform="translate(-105.214 71.494)" fill="#e6e6e6" style="mix-blend-mode: multiply;isolation: isolate"/>
        <path id="Path_749" data-name="Path 749" d="M162.483,428.555a17.31,17.31,0,0,0,10.3-8.653l5.611,2.891a2.262,2.262,0,0,0,2.071-4.023l-5.411-2.786c2.106-1.638,4.186-3.329,6.183-5.1a2.262,2.262,0,1,0-3.005-3.381c-1.983,1.764-4.046,3.439-6.136,5.058a41.059,41.059,0,0,0-4.729-6.832,11.845,11.845,0,0,0-3.777-3.176,6.254,6.254,0,0,0-6.078.167c-2.631,1.7-3.059,5.2-2.115,7.782a11.171,11.171,0,0,0,5.32,5.813,20.029,20.029,0,0,0-4.289,2.844c-1.935,1.683-2.79,3.5-2.588,5.341a5.253,5.253,0,0,0,3.944,4.3A8.475,8.475,0,0,0,162.483,428.555Zm1.45-19.892a36.533,36.533,0,0,1,3.68,5.15,18.018,18.018,0,0,1-3.942-1.092,7.092,7.092,0,0,1-4.021-3.771,3.226,3.226,0,0,1-.19-1.084,1.615,1.615,0,0,1,.51-1.351,1.872,1.872,0,0,1,1.65.1A7.93,7.93,0,0,1,163.934,408.663Zm-4.965,15.772a.979.979,0,0,1-.632-.461v-.016c0-.147.184-.628,1.064-1.392a15.866,15.866,0,0,1,8.843-3.775,12.921,12.921,0,0,1-7.055,5.431A4.249,4.249,0,0,1,158.968,424.435Z" transform="translate(-138.621 104.986)" fill="#ff5467"/>
        <path id="Path_750" data-name="Path 750" stroke="#815c9e" d="M446.322,356.448s-41.849-3.127-254.191,66.93" fill="none" transform="translate(-102.649 62.347)" stroke-linecap="round" stroke-linejoin="round" stroke-width="1.08" stroke-dasharray="5.401"/>
        <circle id="Ellipse_58" data-name="Ellipse 58" cx="28.69" cy="28.69" r="28.69" transform="translate(177.108 407.226) rotate(-78.299)" fill="#ff5467"/>
        <path id="Path_751" data-name="Path 751" d="M233.913,205.341c13-14.124,26.4-28.925,31.89-47.317" transform="translate(-63.423 -123.918)" fill="none" stroke="#b3b3b3" stroke-miterlimit="10" stroke-width="0.27" style="mix-blend-mode: multiply;isolation: isolate"/>
        <path id="Path_752" data-name="Path 752" d="M234.388,201a121.136,121.136,0,0,0,18.328-40.227" transform="translate(-62.977 -121.34)" fill="none" stroke="#b3b3b3" stroke-miterlimit="10" stroke-width="0.27" style="mix-blend-mode: multiply;isolation: isolate"/>
        <path id="Path_753" data-name="Path 753" d="M285.026,195.882a54.636,54.636,0,0,0-8.9-31.134" transform="translate(-23.796 -117.605)" fill="none" stroke="#b3b3b3" stroke-miterlimit="10" stroke-width="0.27" style="mix-blend-mode: multiply;isolation: isolate"/>
        <path id="Path_754" data-name="Path 754" d="M281.142,195.1a89.815,89.815,0,0,0,.112-29.819" transform="translate(-19.084 -117.101)" fill="none" stroke="#b3b3b3" stroke-miterlimit="10" stroke-width="0.27" style="mix-blend-mode: multiply;isolation: isolate"/>
        <path id="Path_755" data-name="Path 755" d="M282.765,199.882c1.086-9.223,2.23-18.648,6.3-26.994" transform="translate(-17.56 -109.963)" fill="none" stroke="#b3b3b3" stroke-miterlimit="10" stroke-width="0.27" style="mix-blend-mode: multiply;isolation: isolate"/>
        <path id="Path_756" data-name="Path 756" d="M283.477,192.027A33.666,33.666,0,0,1,290.337,177" transform="translate(-16.892 -106.102)" fill="none" stroke="#b3b3b3" stroke-miterlimit="10" stroke-width="0.27" style="mix-blend-mode: multiply;isolation: isolate"/>
        <path id="Path_757" data-name="Path 757" d="M216.92,193.085c3.046.512,6.07-.925,8.68-2.575a47.372,47.372,0,0,0,17.758-20.447" transform="translate(-79.377 -112.615)" fill="none" stroke="#b3b3b3" stroke-miterlimit="10" stroke-width="0.27" style="mix-blend-mode: multiply;isolation: isolate"/>
        <path id="Path_758" data-name="Path 758" d="M217.879,206.265a80.5,80.5,0,0,0,21.988-51.189" transform="translate(-78.476 -126.685)" fill="none" stroke="#b3b3b3" stroke-miterlimit="10" stroke-width="0.27" style="mix-blend-mode: multiply;isolation: isolate"/>
        <path id="Path_759" data-name="Path 759" d="M232.648,158.3a34.231,34.231,0,0,1,45.925-10.105" transform="translate(-64.611 -137.71)" fill="none" stroke="#b3b3b3" stroke-miterlimit="10" stroke-width="0.27" style="mix-blend-mode: multiply;isolation: isolate"/>
        <path id="Path_760" data-name="Path 760" d="M263.463,148.721a25.516,25.516,0,0,1,11.792,3.569,76.056,76.056,0,0,1,10.111,7.232,24.479,24.479,0,0,1,3.313,3" transform="translate(-35.681 -132.652)" fill="none" stroke="#b3b3b3" stroke-miterlimit="10" stroke-width="0.27" style="mix-blend-mode: multiply;isolation: isolate"/>
        <path id="Path_761" data-name="Path 761" d="M290.388,208.24a92.281,92.281,0,0,1-25.841-54.376" transform="translate(-34.663 -127.823)" fill="none" stroke="#b3b3b3" stroke-miterlimit="10" stroke-width="0.27" style="mix-blend-mode: multiply;isolation: isolate"/>
        <path id="Path_762" data-name="Path 762" d="M281.63,194.054a101.043,101.043,0,0,1-7.226-25.368" transform="translate(-25.409 -113.908)" fill="none" stroke="#b3b3b3" stroke-miterlimit="10" stroke-width="0.27" style="mix-blend-mode: multiply;isolation: isolate"/>
        <path id="Path_763" data-name="Path 763" d="M234.029,208.8c10.138-5.281,20.047-11.327,28-19.539s13.847-18.838,14.621-30.244" transform="translate(-63.314 -122.984)" fill="none" stroke="#b3b3b3" stroke-miterlimit="10" stroke-width="0.27" style="mix-blend-mode: multiply;isolation: isolate"/>
        <path id="Path_764" data-name="Path 764" d="M256.141,176.662a51.3,51.3,0,0,0,4.644-19.807" transform="translate(-42.555 -125.015)" fill="none" stroke="#b3b3b3" stroke-miterlimit="10" stroke-width="0.27" style="mix-blend-mode: multiply;isolation: isolate"/>
        <path id="Path_765" data-name="Path 765" d="M204.963,209.2a28.279,28.279,0,0,0,16.742-9.427" transform="translate(-90.602 -84.723)" fill="none" stroke="#b3b3b3" stroke-miterlimit="10" stroke-width="0.27" style="mix-blend-mode: multiply;isolation: isolate"/>
        <path id="Path_766" data-name="Path 766" d="M208.244,214.721a55.934,55.934,0,0,0,9.824-12.116" transform="translate(-87.522 -82.064)" fill="none" stroke="#b3b3b3" stroke-miterlimit="10" stroke-width="0.27" style="mix-blend-mode: multiply;isolation: isolate"/>
        <path id="Path_767" data-name="Path 767" d="M205.512,225.557c2.707,1.008,5.7-.138,8.316-1.361,6.894-3.228,13.932-7.614,16.777-14.675" transform="translate(-90.087 -75.571)" fill="none" stroke="#b3b3b3" stroke-miterlimit="10" stroke-width="0.27" style="mix-blend-mode: multiply;isolation: isolate"/>
        <path id="Path_768" data-name="Path 768" d="M206.6,227.45c1.439.136,2.714-.849,3.816-1.786,5.822-4.959,11.645-10.439,14.279-17.618" transform="translate(-89.063 -76.956)" fill="none" stroke="#b3b3b3" stroke-miterlimit="10" stroke-width="0.27" style="mix-blend-mode: multiply;isolation: isolate"/>
        <path id="Path_769" data-name="Path 769" d="M219.436,222.369a29.381,29.381,0,0,0,3.032-8.5" transform="translate(-77.015 -71.493)" fill="none" stroke="#b3b3b3" stroke-miterlimit="10" stroke-width="0.27" style="mix-blend-mode: multiply;isolation: isolate"/>
        <path id="Path_770" data-name="Path 770" d="M220.068,219.885a7.562,7.562,0,0,0,3.918-4.254" transform="translate(-76.421 -69.835)" fill="none" stroke="#b3b3b3" stroke-miterlimit="10" stroke-width="0.27" style="mix-blend-mode: multiply;isolation: isolate"/>
        <path id="Path_771" data-name="Path 771" d="M217.25,233.461a37.428,37.428,0,0,0,11.009-16.189" transform="translate(-79.067 -68.295)" fill="none" stroke="#b3b3b3" stroke-miterlimit="10" stroke-width="0.27" style="mix-blend-mode: multiply;isolation: isolate"/>
        <path id="Path_772" data-name="Path 772" d="M218.707,229.121a49.8,49.8,0,0,0,8.176-8.447" transform="translate(-77.699 -65.101)" fill="none" stroke="#b3b3b3" stroke-miterlimit="10" stroke-width="0.27" style="mix-blend-mode: multiply;isolation: isolate"/>
        <path id="Path_773" data-name="Path 773" d="M224.425,247.733c2.72-1.342,4.372-4.114,6.061-6.635,2.16-3.22,4.618-6.253,6.458-9.667s3.044-7.335,2.427-11.162" transform="translate(-72.331 -65.48)" fill="none" stroke="#b3b3b3" stroke-miterlimit="10" stroke-width="0.27" style="mix-blend-mode: multiply;isolation: isolate"/>
        <path id="Path_774" data-name="Path 774" d="M224.52,246.047a50.97,50.97,0,0,0,8.717-22.386" transform="translate(-72.242 -62.296)" fill="none" stroke="#b3b3b3" stroke-miterlimit="10" stroke-width="0.27" style="mix-blend-mode: multiply;isolation: isolate"/>
        <path id="Path_775" data-name="Path 775" d="M286.888,246.993a51.337,51.337,0,0,1-11.966-23.334" transform="translate(-24.923 -62.298)" fill="none" stroke="#b3b3b3" stroke-miterlimit="10" stroke-width="0.27" style="mix-blend-mode: multiply;isolation: isolate"/>
        <path id="Path_776" data-name="Path 776" d="M285.119,243.57c.037.322-.512.124-.659-.165a109.118,109.118,0,0,1-6.483-15.642" transform="translate(-22.056 -58.445)" fill="none" stroke="#b3b3b3" stroke-miterlimit="10" stroke-width="0.27" style="mix-blend-mode: multiply;isolation: isolate"/>
        <path id="Path_777" data-name="Path 777" d="M294.7,234.678a46.323,46.323,0,0,1-12.777-15.753" transform="translate(-18.347 -66.743)" fill="none" stroke="#b3b3b3" stroke-miterlimit="10" stroke-width="0.27" style="mix-blend-mode: multiply;isolation: isolate"/>
        <path id="Path_778" data-name="Path 778" d="M292.572,236.423a35.1,35.1,0,0,1-8.184-20.113" transform="translate(-16.036 -69.198)" fill="none" stroke="#b3b3b3" stroke-miterlimit="10" stroke-width="0.27" style="mix-blend-mode: multiply;isolation: isolate"/>
        <path id="Path_779" data-name="Path 779" d="M293.034,226.993c-3.449-5.32-6.91-11.016-7.214-17.349" transform="translate(-14.692 -75.456)" fill="none" stroke="#b3b3b3" stroke-miterlimit="10" stroke-width="0.27" style="mix-blend-mode: multiply;isolation: isolate"/>
        <path id="Path_780" data-name="Path 780" d="M298.49,221.723c-4.717-4.49-6.974-10.947-8.614-17.25" transform="translate(-10.884 -80.31)" fill="none" stroke="#b3b3b3" stroke-miterlimit="10" stroke-width="0.27" style="mix-blend-mode: multiply;isolation: isolate"/>
        <path id="Path_781" data-name="Path 781" d="M287.376,194.8c.675-.283,1.413.229,1.908.77a6.385,6.385,0,0,1,1.793,5.049,4.161,4.161,0,0,1-3.614,3.612" transform="translate(-13.231 -89.465)" fill="none" stroke="#b3b3b3" stroke-miterlimit="10" stroke-width="0.27" style="mix-blend-mode: multiply;isolation: isolate"/>
        <path id="Path_782" data-name="Path 782" d="M217.607,193.232a4.9,4.9,0,0,0,1.037,9.69" transform="translate(-82.394 -90.864)" fill="none" stroke="#b3b3b3" stroke-miterlimit="10" stroke-width="0.27" style="mix-blend-mode: multiply;isolation: isolate"/>
      </g>
    </g>
    <g id="Group_988" data-name="Group 988" transform="translate(47.46 25.425)">
      <g id="Group_967" data-name="Group 967" transform="translate(587.648 205.768)">
        <g id="Group_964" data-name="Group 964" transform="translate(34.6 65.838)">
          <path id="Path_783" data-name="Path 783" d="M368.4,193.517l16.992-18.5-3.639-9.5s-10.949,1.541-11.257,2.466-1.233,13.26-1.388,15.419-.708,10.119-.708,10.119" transform="translate(-368.401 -165.513)" fill="#ba4559"/>
        </g>
        <g id="Group_965" data-name="Group 965">
          <path id="Path_784" data-name="Path 784" d="M468.454,132.121a1.861,1.861,0,0,0-1.978-.452L351.761,174.226a1.851,1.851,0,0,0-.132,3.414l20.637,9.524a5.569,5.569,0,0,1,3.118,3.951l6.662,33.315a1.854,1.854,0,0,0,1.541,1.468,1.874,1.874,0,0,0,1.9-.954l10.518-19.532a1.848,1.848,0,0,1,2.974-.392l26.087,27.715a1.852,1.852,0,0,0,1.347.582,1.9,1.9,0,0,0,.332-.029,1.851,1.851,0,0,0,1.378-1.111l40.706-98.064A1.858,1.858,0,0,0,468.454,132.121Z" transform="translate(-350.555 -131.555)" fill="#ff5467"/>
        </g>
        <g id="Group_966" data-name="Group 966" transform="translate(23.411 0.085)">
          <path id="Path_785" data-name="Path 785" d="M456.293,131.6,362.63,188.4a5.53,5.53,0,0,1,1.417,2.678l6.662,33.315a1.854,1.854,0,0,0,1.541,1.468,1.874,1.874,0,0,0,1.9-.954l10.518-19.532a1.845,1.845,0,0,1,.3-.337l.016-.08L457.1,132.07A1.823,1.823,0,0,0,456.293,131.6Z" transform="translate(-362.63 -131.599)" fill="#ba4559"/>
        </g>
      </g>
      <path id="Path_786" data-name="Path 786" d="M605.32,247.078a44.723,44.723,0,0,0,7.877,73.47c11.288,6.049,27.089,6.133,35.261-3.728s.789-29.061-11.908-27.39c-9.089,1.2-14.258,11.032-16.391,19.95s-3.118,18.845-9.56,25.369c-8.727,8.833-24.289,7.057-33.966-.725s-14.737-19.838-18.777-31.58c-15.028-43.68-20-94.514-47.875-133.416-29.8-41.592-82.823-49.822-130.269-39.74-28.423,6.041-55.318,19.693-71.626,44.513-20.825,31.7-18.1,71.382-30.862,106.2-7.257,19.8-18.372,39.325-35.707,51.958-11.422,8.327-49.36,25.075-61.174,10.014a10.117,10.117,0,0,1-.725-11.109c4-6.743,15.266-5.811,19.819.572s3.271,15.524-.964,22.12-10.854,11.224-17.294,15.693c-31.564,21.909-62.82,49.021-80.659,83.7C91.46,470.562,86.964,493.345,86.86,513c-.109,20.46,6.964,44.184,28.495,50.712,5.566,1.689,12.343,1.233,16.226-3.1,6.357-7.09-1.309-20.135-10.817-19.611s-16.112,11.548-13.979,20.829,10.894,15.976,20.191,18.035c24.072,5.33,37.448-15.032,49.415-32.274,18.516-26.68,56.1-49.267,87.635-28.751" transform="translate(-10.472 68.43)" fill="none" stroke="#f9ba2b" stroke-linecap="round" stroke-miterlimit="10" stroke-width="2.16" stroke-dasharray="8.642"/>
      <g id="Group_969" data-name="Group 969" transform="translate(625.747 476.229)">
        <path id="Path_787" data-name="Path 787" d="M445.114,298.082a35.724,35.724,0,0,0-4.638-7.645l1.716-7.017-11.422-7.959-6.084,3.9a31.938,31.938,0,0,0-8.734-1.912l-3.469-6.4-13.8,2.3-1.444,7.214a35.727,35.727,0,0,0-7.645,4.638l-7.019-1.718-8,11.191,3.9,6.082a32.024,32.024,0,0,0-1.914,8.734l-6.356,3.7,2.3,13.8,7.212,1.444a35.749,35.749,0,0,0,4.64,7.643l-1.718,7.019,11.424,7.957,6.084-3.9a32.009,32.009,0,0,0,8.734,1.912l3.7,6.357,13.57-2.259,1.444-7.214a35.707,35.707,0,0,0,7.643-4.638l7.019,1.718,8.23-11.23-3.9-6.084a32,32,0,0,0,1.914-8.734l6.357-3.7-2.3-13.8Zm-30.03,31.929a17.077,17.077,0,1,1,14.041-19.65A17.005,17.005,0,0,1,415.084,330.011Z" transform="translate(-370.206 -271.053)" fill="#80475a"/>
        <g id="Group_968" data-name="Group 968" transform="translate(16.577 16.588)">
          <path id="Path_788" data-name="Path 788" d="M412.982,312.782a16.893,16.893,0,0,1-23.63,3.934l-5.07,7.094a25.66,25.66,0,0,0,29.838-41.755l-5.07,7.094A16.894,16.894,0,0,1,412.982,312.782Z" transform="translate(-373.568 -277.311)" fill="#ff5467"/>
          <path id="Path_789" data-name="Path 789" d="M383.512,290.312a25.767,25.767,0,0,0,5.958,35.8l5.07-7.094a16.941,16.941,0,0,1,19.7-27.566l5.07-7.094A25.767,25.767,0,0,0,383.512,290.312Z" transform="translate(-378.756 -279.609)" fill="#ff5467"/>
        </g>
        <path id="Path_790" data-name="Path 790" d="M433.808,326.846a11.52,11.52,0,0,0-.663-3.977l1.95-2.73-3.313-5.46-3.275.545a32.479,32.479,0,0,0-3.277-2.34l-.545-3.275-6.237-1.367-1.95,2.73a11.491,11.491,0,0,0-3.978.661l-2.728-1.95L404.332,313l.545,3.277a31.838,31.838,0,0,0-2.34,3.275l-3.277.545-1.365,6.239,2.728,1.95a11.527,11.527,0,0,0,.663,3.977l-1.95,2.73,3.313,5.46,3.275-.545a32.672,32.672,0,0,0,3.275,2.34l.547,3.275,6.237,1.367,1.951-2.73a11.536,11.536,0,0,0,3.978-.661l2.728,1.95,5.46-3.315-.545-3.275a31.865,31.865,0,0,0,2.34-3.275l3.277-.545,1.365-6.239Zm-17.9,8.029a7.663,7.663,0,1,1,9.126-5.847A7.582,7.582,0,0,1,415.907,334.875Z" transform="translate(-344.211 -236.138)" fill="#faa10f"/>
        <path id="Path_791" data-name="Path 791" d="M446.985,308.406a11.526,11.526,0,0,0-.663-3.977l1.95-2.73-3.313-5.46-3.275.547a32.2,32.2,0,0,0-3.277-2.342l-.545-3.275-6.237-1.367-1.95,2.73a11.537,11.537,0,0,0-3.978.661l-2.728-1.949-5.46,3.311.545,3.277a31.845,31.845,0,0,0-2.34,3.275l-3.277.545-1.365,6.239,2.728,1.95a11.517,11.517,0,0,0,.663,3.977l-1.95,2.73,3.313,5.46,3.275-.545a32.67,32.67,0,0,0,3.275,2.34l.547,3.275,6.237,1.367,1.95-2.73a11.533,11.533,0,0,0,3.978-.661l2.728,1.95,5.46-3.313-.545-3.277a31.874,31.874,0,0,0,2.34-3.275l3.277-.545,1.365-6.239Zm-18.1,8.3a7.663,7.663,0,1,1,9.126-5.848A7.43,7.43,0,0,1,428.89,316.708Z" transform="translate(-331.84 -253.45)" fill="#ff5467"/>
      </g>
      <g id="Group_973" data-name="Group 973" transform="translate(303.214)">
        <path id="Path_792" data-name="Path 792" d="M302.163,167.653a48.185,48.185,0,0,1,14.555-22.262A58.482,58.482,0,0,0,337.7,100.44a59.112,59.112,0,0,0-62.077-59.08c-30.395,1.285-55.225,26.971-56.082,57.368a58.651,58.651,0,0,0,20.978,46.664A45.93,45.93,0,0,1,255.5,167.653Z" transform="translate(-189.141 -10.536)" fill="#faa10f"/>
        <g id="Group_970" data-name="Group 970" transform="translate(66.356 156.688)">
          <path id="Path_793" data-name="Path 793" d="M243.155,126.776a14.29,14.29,0,0,0,26.542,0Z" transform="translate(-233.308 -86.962)" fill="#3e4b5e"/>
          <path id="Path_794" data-name="Path 794" d="M277.035,146.483H245.783a7.674,7.674,0,0,1-7.707-7.7V106.241h46.665v32.537A7.674,7.674,0,0,1,277.035,146.483Z" transform="translate(-238.076 -106.241)" fill="#3e4b5e"/>
        </g>
        <g id="Group_971" data-name="Group 971" transform="translate(61.647 163.538)">
          <path id="Path_795" data-name="Path 795" d="M286.593,119.193H240.356a4.751,4.751,0,0,1-4.709-4.709h0a4.751,4.751,0,0,1,4.709-4.709h46.237a4.749,4.749,0,0,1,4.707,4.709h0A4.749,4.749,0,0,1,286.593,119.193Z" transform="translate(-235.647 -109.774)" fill="#4b5a6a"/>
          <path id="Path_796" data-name="Path 796" d="M286.593,126.92H240.356a4.751,4.751,0,0,1-4.709-4.707h0a4.751,4.751,0,0,1,4.709-4.709h46.237a4.749,4.749,0,0,1,4.707,4.709h0A4.749,4.749,0,0,1,286.593,126.92Z" transform="translate(-235.647 -102.518)" fill="#4b5a6a"/>
        </g>
        <g id="Group_972" data-name="Group 972" transform="translate(0)">
          <path id="Path_797" data-name="Path 797" d="M252.073,25.425a4.29,4.29,0,0,0-4.281,4.281V44.263a4.29,4.29,0,0,0,4.281,4.281,4.044,4.044,0,0,0,4.281-4.281V29.706A4.29,4.29,0,0,0,252.073,25.425Z" transform="translate(-162.598 -25.425)" fill="#f9ba2b"/>
          <path id="Path_798" data-name="Path 798" d="M223.937,39.516a4.239,4.239,0,0,0-5.995,5.995l10.276,10.274a4.238,4.238,0,0,0,5.993-5.993Z" transform="translate(-191.828 -13.402)" fill="#f9ba2b"/>
          <path id="Path_799" data-name="Path 799" d="M222.687,69.366H208.132a4.29,4.29,0,0,0-4.281,4.281h0a4.291,4.291,0,0,0,4.281,4.283h14.555a4.293,4.293,0,0,0,4.283-4.283h0A4.606,4.606,0,0,0,222.687,69.366Z" transform="translate(-203.851 15.828)" fill="#f9ba2b"/>
          <path id="Path_800" data-name="Path 800" d="M228.217,96.485,217.942,106.76a4.238,4.238,0,0,0,5.993,5.993l10.276-10.276a4.238,4.238,0,0,0-5.993-5.993Z" transform="translate(-191.828 40.082)" fill="#f9ba2b"/>
          <path id="Path_801" data-name="Path 801" d="M280.9,96.485a4.238,4.238,0,1,0-5.993,5.993l10.274,10.276a4.238,4.238,0,0,0,5.995-5.993Z" transform="translate(-138.344 40.082)" fill="#f9ba2b"/>
          <path id="Path_802" data-name="Path 802" d="M303.063,69.366H288.508a4.291,4.291,0,0,0-4.283,4.281h0a4.293,4.293,0,0,0,4.283,4.283h14.555a4.291,4.291,0,0,0,4.281-4.283h0A4.29,4.29,0,0,0,303.063,69.366Z" transform="translate(-128.394 15.828)" fill="#f9ba2b"/>
          <path id="Path_803" data-name="Path 803" d="M285.185,39.516,274.911,49.791a4.238,4.238,0,0,0,5.993,5.993l10.276-10.274a4.239,4.239,0,1,0-5.995-5.995Z" transform="translate(-138.344 -13.402)" fill="#f9ba2b"/>
        </g>
        <path id="Path_804" data-name="Path 804" d="M238.184,140.571c8.672-15.406,12.988-32.817,17.213-49.985,1.611-6.557,3.158-13.789.085-19.8a6.272,6.272,0,0,0-3.4-3.343,5.882,5.882,0,0,0-3.376.126c-6.734,1.966-10.154,10.059-9.064,16.988s5.545,12.821,10.2,18.068c1.549,1.745,3.218,3.513,5.4,4.343,5.646,2.148,11.391-2.753,15.1-7.521,3.172-4.079,6.111-8.548,7.071-13.624s-.465-10.892-4.645-13.928a1.865,1.865,0,0,0-1.035-.444c-.779,0-1.266.824-1.547,1.549-1.865,4.81-2.059,10.08-2.23,15.235-.607,18.237-1.018,37.392,7.348,53.6" transform="translate(-171.618 13.837)" fill="none" stroke="#fff" stroke-miterlimit="10" stroke-width="0.85"/>
        <path id="Path_805" data-name="Path 805" d="M251.942,46.811c11.253-1.249,22.314,5.549,28.658,14.927S289.249,82.661,290,93.957c.289,4.335.355,8.8-1.1,12.893" transform="translate(-158.702 -5.487)" fill="none" stroke="#fff" stroke-miterlimit="10" stroke-width="0.85"/>
      </g>
      <path id="Path_806" data-name="Path 806" d="M266.9,353.028c24.245-29.09,24.553-70.715,38.127-106.067,3.779-9.841,9.644-20.168,19.706-23.316,13.1-4.1,27.246,7,30.728,20.27s-1.064,27.357-7.3,39.585a147.08,147.08,0,0,1-83.5,71.855Z" transform="translate(156.462 159.856)" fill="#80475a"/>
      <path id="Path_807" data-name="Path 807" d="M320.946,264.531q1.338-9.021,2.672-18.041c.492-3.329,1.01-6.737,2.617-9.694s4.548-5.425,7.914-5.5c3.7-.079,7.032,2.866,8.137,6.4s.293,7.447-1.421,10.729c-3.724,7.123-11.109,11.435-18.118,15.369Z" transform="translate(209.295 167.851)" fill="#faa10f"/>
      <path id="Path_808" data-name="Path 808" d="M253.22,318.093c-16.955-23.018-27.911-51.786-51.728-67.6-4.958-3.292-10.658-5.981-16.6-5.677-8.868.456-16.43,7.945-18.5,16.581s.675,17.926,5.783,25.187c4.96,7.051,11.953,12.416,19.229,17.035a150.452,150.452,0,0,0,69.573,22.928A90.925,90.925,0,0,1,253.22,318.093Z" transform="translate(63.546 180.523)" fill="#faa10f"/>
      <path id="Path_809" data-name="Path 809" d="M206.594,271.391c-1.714-3.391-2.976-8.43.374-10.223,3.383-1.809,6.916,2.168,8.5,5.663a79.045,79.045,0,0,1,6.8,26.62S210.985,280.065,206.594,271.391Z" transform="translate(100.318 195.471)" fill="#faa10f"/>
      <path id="Path_810" data-name="Path 810" d="M240.51,342.485c-4.048-34.5-37.693-53.17-68.13-60.127-18.223-4.167-40.322-3.17-53.267,12.1-7.606,8.971-10.38,22.263-5.526,32.977,7.263,16.028,22.919,16.5,37.154,9.638,18.118-8.73,29.7-20.966,52.021-18.682A49.48,49.48,0,0,1,240.51,342.485Z" transform="translate(12.353 213.803)" fill="#80475a"/>
      <path id="Path_811" data-name="Path 811" d="M185.137,311.516c-14.258-5.816-32.188-.648-41.161,11.868-2.66,3.709-4.537,8.872-2.055,12.7a9.98,9.98,0,0,0,3.961,3.292,18.432,18.432,0,0,0,20.751-3.24c3.893-3.852,5.8-9.211,8.416-14.022s6.644-9.537,12.085-10.169Z" transform="translate(40.131 240.928)" fill="#ff5467"/>
      <path id="Path_812" data-name="Path 812" d="M147.973,282.417c-2.852-3.949-5.062-9.731-1.805-13.355,3.721-4.139,10.83-1.212,14.281,3.154,4.1,5.184,5.911,11.761,8.878,17.668s2.906,6.105,14.487,12.25C183.814,302.135,156.268,293.907,147.973,282.417Z" transform="translate(43.691 201.437)" fill="#ff5467"/>
      <path id="Path_813" data-name="Path 813" d="M321.69,380.821c4.861-21.525,18.012-41.495,37.088-52.589s44.042-12.395,63.209-1.458c5.314,3.032,10.328,7.176,12.62,12.851,2.391,5.925,1.47,12.734-.836,18.694-2.6,6.722-7.032,12.887-13.17,16.666s-14.064,4.921-20.709,2.131c-9.489-3.982-14.374-14.518-22.616-20.679-9.721-7.269-23.636-7.532-34.55-2.218S321.69,380.821,321.69,380.821Z" transform="translate(209.993 250.386)" fill="#ff5467"/>
      <path id="Path_814" data-name="Path 814" d="M326.977,361.721a27.538,27.538,0,0,0,5.9-20.253c-.884-7.7-4.1-14.911-6.454-22.3-1.5-4.715-2.66-9.8-1.326-14.574,2.65-9.461,12.494-9.871,17.748-1.819,6.623,10.15,6.088,28.475,2.55,39.49a31.089,31.089,0,0,1-6.79,11.883C335.667,357.269,329.217,358.826,326.977,361.721Z" transform="translate(212.637 229.622)" fill="#80475a"/>
      <g id="Group_978" data-name="Group 978" transform="translate(14.58 203.433)">
        <path id="Path_815" data-name="Path 815" d="M108.97,130.351a53.99,53.99,0,1,0,53.99,53.99A53.835,53.835,0,0,0,108.97,130.351Zm0,98.164a44.174,44.174,0,1,1,44.174-44.174A44.3,44.3,0,0,1,108.97,228.515Z" transform="translate(-54.98 -130.351)" fill="#80475a"/>
        <path id="Path_816" data-name="Path 816" d="M108.97,130.351h0a53.835,53.835,0,0,0-53.99,53.99h0a5.1,5.1,0,0,0,5.153-4.663,49.435,49.435,0,0,1,14.479-30.43A48.627,48.627,0,0,1,104.307,135.5,5.1,5.1,0,0,0,108.97,130.351Z" transform="translate(-54.98 -130.351)" fill="#ff5467"/>
        <path id="Path_817" data-name="Path 817" d="M82.827,212.188h0a53.835,53.835,0,0,0,53.99-53.99h0a5.1,5.1,0,0,0-5.153,4.663A48.883,48.883,0,0,1,87.49,207.035,5.1,5.1,0,0,0,82.827,212.188Z" transform="translate(-28.837 -104.208)" fill="#ff5467"/>
        <circle id="Ellipse_59" data-name="Ellipse 59" cx="44.174" cy="44.174" r="44.174" transform="translate(9.816 9.817)" fill="#fff"/>
        <path id="Path_818" data-name="Path 818" d="M63.723,183.27A44.3,44.3,0,0,1,107.9,139.1a42.5,42.5,0,0,1,29.2,11.29,42.941,42.941,0,0,0-32.884-14.972,44.3,44.3,0,0,0-44.174,44.174,42.949,42.949,0,0,0,14.97,32.886A42.5,42.5,0,0,1,63.723,183.27Z" transform="translate(-50.227 -125.598)" fill="#d7e1ed"/>
        <path id="Path_819" data-name="Path 819" d="M68.516,161.841H58.7a2.319,2.319,0,0,1-2.455-2.455h0a2.32,2.32,0,0,1,2.455-2.455h9.816a2.319,2.319,0,0,1,2.455,2.455h0A2.318,2.318,0,0,1,68.516,161.841Z" transform="translate(-53.792 -105.396)" fill="#f9ba2b"/>
        <g id="Group_974" data-name="Group 974" transform="translate(51.536 2.455)">
          <path id="Path_820" data-name="Path 820" d="M114.084,161.841h-9.816a2.319,2.319,0,0,1-2.455-2.455h0a2.32,2.32,0,0,1,2.455-2.455h9.816a2.319,2.319,0,0,1,2.455,2.455h0A2.318,2.318,0,0,1,114.084,161.841Z" transform="translate(-62.548 -107.851)" fill="#f9ba2b"/>
          <path id="Path_821" data-name="Path 821" d="M81.561,143.888v-9.816a2.318,2.318,0,0,1,2.455-2.455h0a2.318,2.318,0,0,1,2.453,2.455v9.816a2.319,2.319,0,0,1-2.453,2.455h0A2.319,2.319,0,0,1,81.561,143.888Z" transform="translate(-81.561 -131.617)" fill="#f9ba2b"/>
        </g>
        <path id="Path_822" data-name="Path 822" d="M81.561,189.456V179.64a2.318,2.318,0,0,1,2.455-2.455h0a2.318,2.318,0,0,1,2.453,2.455v9.816a2.317,2.317,0,0,1-2.453,2.453h0A2.317,2.317,0,0,1,81.561,189.456Z" transform="translate(-30.025 -86.382)" fill="#f9ba2b"/>
        <g id="Group_975" data-name="Group 975" transform="translate(51.536 26.996)">
          <path id="Path_823" data-name="Path 823" d="M84.016,168.815a2.318,2.318,0,0,1-2.455-2.453V146.73a2.454,2.454,0,1,1,4.907,0v19.633A2.317,2.317,0,0,1,84.016,168.815Z" transform="translate(-81.561 -144.275)" fill="#5a5a65"/>
          <path id="Path_824" data-name="Path 824" d="M104.915,182.739A2.221,2.221,0,0,1,103.2,182L83.562,162.37A2.43,2.43,0,1,1,87,158.934l19.633,19.632a2.373,2.373,0,0,1,0,3.436A2.224,2.224,0,0,1,104.915,182.739Z" transform="translate(-80.373 -131.203)" fill="#5a5a65"/>
        </g>
        <g id="Group_976" data-name="Group 976" transform="translate(19.634 19.636)">
          <path id="Path_825" data-name="Path 825" d="M74.516,140.479a2.454,2.454,0,1,1-2.455,2.453A2.453,2.453,0,0,1,74.516,140.479Z" transform="translate(-58.578 -140.479)" fill="#f9ba2b"/>
          <path id="Path_826" data-name="Path 826" d="M93.514,173.385a2.455,2.455,0,1,1-2.455,2.455A2.455,2.455,0,0,1,93.514,173.385Z" transform="translate(-40.743 -109.586)" fill="#f9ba2b"/>
          <path id="Path_827" data-name="Path 827" d="M67.57,147.447a2.454,2.454,0,1,1-2.455,2.453A2.453,2.453,0,0,1,67.57,147.447Z" transform="translate(-65.099 -133.937)" fill="#f9ba2b"/>
          <path id="Path_828" data-name="Path 828" d="M100.467,166.413a2.455,2.455,0,1,1-2.455,2.455A2.455,2.455,0,0,1,100.467,166.413Z" transform="translate(-34.215 -116.132)" fill="#f9ba2b"/>
          <path id="Path_829" data-name="Path 829" d="M93.5,140.481a2.455,2.455,0,1,1-2.455,2.455A2.453,2.453,0,0,1,93.5,140.481Z" transform="translate(-40.758 -140.477)" fill="#f9ba2b"/>
          <path id="Path_830" data-name="Path 830" d="M74.535,173.379a2.454,2.454,0,1,1-2.455,2.455A2.454,2.454,0,0,1,74.535,173.379Z" transform="translate(-58.561 -109.592)" fill="#f9ba2b"/>
          <path id="Path_831" data-name="Path 831" d="M100.467,147.433a2.454,2.454,0,1,1-2.453,2.455A2.454,2.454,0,0,1,100.467,147.433Z" transform="translate(-34.213 -133.95)" fill="#f9ba2b"/>
          <path id="Path_832" data-name="Path 832" d="M67.562,166.431a2.454,2.454,0,1,1-2.455,2.455A2.455,2.455,0,0,1,67.562,166.431Z" transform="translate(-65.107 -116.115)" fill="#f9ba2b"/>
        </g>
        <g id="Group_977" data-name="Group 977" transform="translate(53.99 29.449)">
          <path id="Path_833" data-name="Path 833" d="M82.827,163.947v-17.18a1.16,1.16,0,0,1,1.227-1.227h0a1.16,1.16,0,0,1,1.225,1.227v17.18a1.159,1.159,0,0,1-1.225,1.227h0A1.159,1.159,0,0,1,82.827,163.947Z" transform="translate(-82.827 -145.54)" fill="#383940"/>
          <path id="Path_834" data-name="Path 834" d="M101.584,179.56,84.65,162.626a1.187,1.187,0,0,1,0-1.718h0a1.187,1.187,0,0,1,1.718,0L103.3,177.842a1.187,1.187,0,0,1,0,1.718h0A1.187,1.187,0,0,1,101.584,179.56Z" transform="translate(-81.461 -131.457)" fill="#383940"/>
        </g>
        <path id="Path_835" data-name="Path 835" d="M86.393,154.4a7.363,7.363,0,1,1-7.364,7.362A7.362,7.362,0,0,1,86.393,154.4Z" transform="translate(-32.402 -107.772)" fill="#f9ba2b"/>
      </g>
      <path id="Path_836" data-name="Path 836" d="M319.883,83.554c-14.186-4.913-7.8,15.14-5.26,21.325,5.745,14,12.992,27.295,19.788,40.795,6.227,12.374,16.253,27.273,15.357,41.712C350.094,182.157,351.629,94.548,319.883,83.554Z" transform="translate(199.932 28.428)" fill="#faa10f"/>
      <path id="Path_837" data-name="Path 837" d="M336.948,146.56c-2.047-7.98-2.03-18.661,2.623-25.914,1.156-1.8,3.4-3.567,5.225-2.453a4.34,4.34,0,0,1,1.617,2.864c1.842,7.8.892,23.875-9.436,25.616Z" transform="translate(223.096 61.342)" fill="#faa10f"/>
      <path id="Path_838" data-name="Path 838" d="M103.158,190.362a77.358,77.358,0,0,1,8.147,7.992c10.97,13.122,11.617,33.805,1.489,47.588-3.839,5.223-8.917,9.386-13.337,14.128-5.295,5.681-9.746,12.443-11.212,20.071s.483,16.195,6.266,21.377c7.992,7.16,21.118,5.816,29.7-.622s13.409-16.709,16.61-26.952c3.918-12.542,5.906-25.839,4.32-38.881s-6.922-25.829-16.164-35.166C121.337,192.175,103.158,190.362,103.158,190.362Z" transform="translate(-9.61 129.421)" fill="#faa10f"/>
      <path id="Path_839" data-name="Path 839" d="M50.62,367.367c-.054.283-.107.568-.157.851C48.208,381.072,54.4,398.151,67.8,402.232c14.652,4.459,8.616-16.379,6.346-23.341-5.134-15.751-10.066-26.911-4.919-44.077a1.319,1.319,0,0,0-2.363-1.111C60.3,343.781,53,355.129,50.62,367.367Z" transform="translate(-45.068 263.425)" fill="#faa10f"/>
      <path id="Path_840" data-name="Path 840" d="M76.519,313.227c-13.876,1.111-26.308,12.344-28.815,26.036-.492,2.691-.405,5.964,1.838,7.527a5.994,5.994,0,0,0,4.081.8c7.608-.83,12.1-8.82,14.659-16.032A199.805,199.805,0,0,1,76.519,313.227Z" transform="translate(-47.46 244.77)" fill="#faa10f"/>
      <path id="Path_841" data-name="Path 841" d="M425.711,399.015q.358-.241.714-.491c10.683-7.5,18.384-23.946,11.794-36.308-7.207-13.514-17.674,5.489-20.994,12.017-7.505,14.768-11.91,26.147-27.688,34.647a1.319,1.319,0,0,0,.886,2.456C402.187,408.848,415.371,405.983,425.711,399.015Z" transform="translate(273.029 286.31)" fill="#ff5467"/>
      <path id="Path_842" data-name="Path 842" d="M396.974,394.5c10.6,9.027,27.334,9.874,38.786,1.964,2.251-1.553,4.5-3.93,4.023-6.621a5.986,5.986,0,0,0-2.321-3.451c-5.966-4.795-14.791-2.321-21.7.969A199.351,199.351,0,0,1,396.974,394.5Z" transform="translate(280.671 310.943)" fill="#faa10f"/>
      <path id="Path_843" data-name="Path 843" d="M86.591,109.955c9.638-25.4,35.546-49.432,61.119-46.326a13.759,13.759,0,0,1,4.38,1.13c4.438,2.154,6.179,8.029,4.715,12.738s-5.442,8.277-9.82,10.551c-11.113,5.774-24.235,9.223-35.035,16.267C100.8,111.591,93.3,123.067,82.764,131.1,82.151,124.034,84.1,116.522,86.591,109.955Z" transform="translate(-14.423 10.186)" fill="#ff5467"/>
      <path id="Path_844" data-name="Path 844" d="M76.626,118.21C66.2,102.023,63.415,77.138,75.949,63.869a9.814,9.814,0,0,1,2.489-2.02c3.1-1.623,7.178-.142,9.246,2.676s2.427,6.586,1.881,10.039c-1.388,8.765-4.946,17.7-5.477,26.818-.549,9.421,2.838,18.524,2.982,27.913C82.782,126.669,79.321,122.4,76.626,118.21Z" transform="translate(-28.524 8.139)" fill="#faa10f"/>
      <path id="Path_845" data-name="Path 845" d="M458.782,240.562c-1.284,27.14-18.461,58.019-43.736,63a13.7,13.7,0,0,1-4.517.283c-4.886-.671-8.362-5.716-8.432-10.648s2.606-9.556,6.063-13.075c8.775-8.936,20.179-16.284,28.262-26.331,8.349-10.377,11.912-23.611,19.439-34.519C458.637,225.8,459.113,233.546,458.782,240.562Z" transform="translate(285.479 156.561)" fill="#faa10f"/>
      <path id="Path_846" data-name="Path 846" d="M118.679,211.639c-.911,19.293-13.124,41.246-31.093,44.785a9.736,9.736,0,0,1-3.211.2c-3.474-.477-5.944-4.064-5.995-7.569s1.854-6.794,4.31-9.3c6.239-6.354,14.347-11.577,20.092-18.719,5.935-7.375,8.469-16.784,13.82-24.54C118.576,201.143,118.915,206.651,118.679,211.639Z" transform="translate(-18.432 135.185)" fill="#ff5467"/>
      <path id="Path_847" data-name="Path 847" d="M448.612,226.892c14.929,12.156,25.3,34.947,17.5,51.451a9.729,9.729,0,0,1-1.741,2.693c-2.441,2.5-6.778,2.361-9.618.324s-4.351-5.508-4.9-8.959c-1.4-8.763-.787-18.359-3.112-27.194-2.4-9.128-8.442-16.73-11.491-25.612C440.136,220.759,444.752,223.749,448.612,226.892Z" transform="translate(316.602 156.865)" fill="#ff5467"/>
      <rect id="Rectangle_123" data-name="Rectangle 123" width="41.316" height="39.46" rx="5.295" transform="translate(162.762 203.504)" fill="#80475a"/>
      <g id="Group_981" data-name="Group 981" transform="translate(181.065 197.205)">
        <g id="Group_980" data-name="Group 980" transform="translate(0 0)">
          <g id="Group_979" data-name="Group 979">
            <path id="Path_848" data-name="Path 848" d="M155.363,168.04a4.076,4.076,0,0,1-3.248-1.615l-10.441-13.789a4.073,4.073,0,0,1,6.5-4.915l6.867,9.066,17.269-27.729a4.073,4.073,0,1,1,6.916,4.306l-20.4,32.756a4.07,4.07,0,0,1-3.273,1.916C155.485,168.038,155.425,168.04,155.363,168.04Z" transform="translate(-140.849 -127.139)" fill="#faa10f"/>
          </g>
        </g>
      </g>
      <rect id="Rectangle_124" data-name="Rectangle 124" width="41.316" height="39.46" rx="5.295" transform="translate(162.762 258.819)" fill="#80475a"/>
      <g id="Group_984" data-name="Group 984" transform="translate(181.065 252.52)">
        <g id="Group_983" data-name="Group 983">
          <g id="Group_982" data-name="Group 982">
            <path id="Path_849" data-name="Path 849" d="M155.363,196.57a4.076,4.076,0,0,1-3.248-1.615l-10.441-13.789a4.073,4.073,0,0,1,6.5-4.915l6.867,9.066,17.269-27.729a4.073,4.073,0,1,1,6.916,4.306l-20.4,32.756a4.07,4.07,0,0,1-3.273,1.916C155.485,196.568,155.425,196.57,155.363,196.57Z" transform="translate(-140.849 -155.669)" fill="#faa10f"/>
          </g>
        </g>
      </g>
      <rect id="Rectangle_125" data-name="Rectangle 125" width="41.316" height="39.46" rx="5.295" transform="translate(162.762 314.134)" fill="#80475a"/>
      <g id="Group_987" data-name="Group 987" transform="translate(181.065 307.835)">
        <g id="Group_986" data-name="Group 986">
          <g id="Group_985" data-name="Group 985">
            <path id="Path_850" data-name="Path 850" d="M155.363,225.1a4.076,4.076,0,0,1-3.248-1.615L141.675,209.7a4.073,4.073,0,0,1,6.5-4.917l6.867,9.066,17.269-27.729a4.073,4.073,0,1,1,6.916,4.306l-20.4,32.756a4.07,4.07,0,0,1-3.273,1.916C155.485,225.1,155.425,225.1,155.363,225.1Z" transform="translate(-140.849 -184.199)" fill="#faa10f"/>
          </g>
        </g>
      </g>
      <path id="Path_851" data-name="Path 851" d="M344.035,152.22a8.23,8.23,0,1,1-8.23-8.23A8.23,8.23,0,0,1,344.035,152.22Z" transform="translate(215.517 85.886)" fill="#faa10f"/>
      <path id="Path_852" data-name="Path 852" d="M447.462,265.2a8.23,8.23,0,1,1-8.23-8.228A8.23,8.23,0,0,1,447.462,265.2Z" transform="translate(312.617 191.955)" fill="#faa10f"/>
      <path id="Path_853" data-name="Path 853" d="M74.662,194.4a8.229,8.229,0,1,1-8.228-8.23A8.229,8.229,0,0,1,74.662,194.4Z" transform="translate(-37.374 125.488)" fill="#faa10f"/>
      <circle id="Ellipse_60" data-name="Ellipse 60" cx="8.23" cy="8.23" r="8.23" transform="translate(97.329 179.711)" fill="#faa10f"/>
    </g>
  </g>
</svg>
