<svg xmlns="http://www.w3.org/2000/svg" xmlns:xlink="http://www.w3.org/1999/xlink" viewBox="0 0 619.94 388.91"><defs><style>.cls-1{fill:url(#linear-gradient);}.cls-2{opacity:0.8;}</style><linearGradient id="linear-gradient" x1="272.03" y1="-1184.66" x2="901.86" y2="-1184.66" gradientTransform="matrix(0.68, 0.54, -0.73, 0.57, -967.37, 554.22)" gradientUnits="userSpaceOnUse"><stop offset="0" stop-color="#fccf3e"/><stop offset="1" stop-color="#fd9a24"/></linearGradient></defs><title>Asset 11</title><g id="Layer_2" data-name="Layer 2"><g id="Layer_1-2" data-name="Layer 1"><path class="cls-1" d="M614.5,183C598.42,136.1,542.63,99.85,482,102.66c-33.05,1.54-65.1,13.62-98.14,14.11-27.72.41-55-7.76-75.11-22.5C279,72.46,265.82,38.17,234.59,17.75c-43-28.16-111.82-20.93-157,8.44S8.27,102.09,0,147.88l1,13.53c2.29,46.26,23.24,98,60.8,135.2C99.84,334.33,123.72,349,187.92,372c54.51,19.51,156.92,19.25,217.44,13.62s120.92-27.17,162.71-64.51S630.57,229.9,614.5,183Z"/><g class="cls-2"><path class="cls-1" d="M614.5,183C598.42,136.1,542.63,99.85,482,102.66c-33.05,1.54-65.1,13.62-98.14,14.11-27.72.41-55-7.76-75.11-22.5C279,72.46,265.82,38.17,234.59,17.75c-43-28.16-111.82-20.93-157,8.44S8.27,102.09,0,147.88l1,13.53c2.29,46.26,23.24,98,60.8,135.2C99.84,334.33,123.72,349,187.92,372c54.51,19.51,156.92,19.25,217.44,13.62s120.92-27.17,162.71-64.51S630.57,229.9,614.5,183Z"/></g></g></g></svg>