<svg xmlns="http://www.w3.org/2000/svg" width="574.599" height="510.755" viewBox="0 0 574.599 510.755">
  <path id="Icon_awesome-trophy" data-name="Icon awesome-trophy" d="M550.658,63.844H446.911v-39.9A23.884,23.884,0,0,0,422.969,0H151.63a23.884,23.884,0,0,0-23.942,23.942v39.9H23.942A23.884,23.884,0,0,0,0,87.786V143.65C0,179.263,22.445,215.874,61.749,244.1c31.423,22.645,69.63,37.01,109.733,41.6,31.324,51.973,67.934,73.421,67.934,73.421V430.95H191.533c-35.214,0-63.844,20.65-63.844,55.864v11.971a12.006,12.006,0,0,0,11.971,11.971H434.94a12.006,12.006,0,0,0,11.971-11.971V486.813c0-35.214-28.63-55.864-63.844-55.864H335.183V359.125s36.611-21.448,67.934-73.421c40.2-4.589,78.409-18.954,109.733-41.6,39.2-28.231,61.749-64.842,61.749-100.455V87.786A23.884,23.884,0,0,0,550.658,63.844ZM99.059,192.331c-24.341-17.557-35.214-37.11-35.214-48.681V127.689h64.044a358.292,358.292,0,0,0,12.769,85.99,160.761,160.761,0,0,1-41.6-21.348Zm411.7-48.681c0,16.061-17.657,36.012-35.214,48.681a161.388,161.388,0,0,1-41.7,21.348,358.291,358.291,0,0,0,12.769-85.99h64.144Z" fill="#ff5467"/>
</svg>
